<?xml version="1.0" encoding="utf-8"?>
<!-- Generator: Adobe Illustrator 24.1.0, SVG Export Plug-In . SVG Version: 6.00 Build 0)  -->
<svg version="1.1" id="bulb" xmlns="http://www.w3.org/2000/svg" xmlns:xlink="http://www.w3.org/1999/xlink" x="0px" y="0px"
	 viewBox="0 0 619 787" style="enable-background:new 0 0 619 787;" xml:space="preserve">
<style type="text/css">
	.st0{fill:#FEFEE1;}
	.st1{fill:#FEFEE9;}
	.st2{fill:#FDFECF;}
	.st3{fill:#FAFE13;}
	.st4{fill:#FAFE25;}
	.st5{fill:#FBFE4D;}
	.st6{fill:#FAFE26;}
	.st7{fill:#2917FE;}
	.st8{fill:#301FFE;}
	.st9{fill:#3625FE;}
	.st10{fill:#7468FE;}
	.st11{fill:#594BFE;}
	.st12{fill:#6F64FE;}
	.st13{fill:#7A6FFE;}
	.st14{fill:#FAFE12;}
	.st15{fill:#FEFEF9;}
	.st16{fill:#FDFEDA;}
	.st17{fill:#FDFEC3;}
	.st18{fill:#FDFED7;}
	.st19{fill:#FEFEFC;}
	.st20{fill:#FAFE20;}
	.st21{fill:#FAFE14;}
	.st22{fill:#FEFEF5;}
	.st23{fill:#FDFEC5;}
	.st24{fill:#FFFFFF;}
</style>
<g id="yellow_reflection">
	<path class="st0" d="M20.1,205.8h-1v-5h1C21.5,202.2,21.6,204.4,20.1,205.8C20.2,205.8,20.2,205.8,20.1,205.8z"/>
	<path class="st1" d="M94.9,94.1c-0.3,0-0.6,0-0.9,0c-0.3-0.2-0.6-0.5-0.8-0.9c-0.1-0.4-0.1-0.8,0-1.2c0.1-0.4,0.4-0.7,0.7-1
		C96,91.5,94.4,93.1,94.9,94.1z"/>
	<path class="st2" d="M93.9,91.1l-0.1,1.1c-0.5,0.5-1.3,0.5-1.8,0l-0.1-1.1L93.9,91.1z"/>
	<path class="st3" d="M20.1,205.8v-5c5.4-15,11.9-29.5,18.8-43.8c7.9-16.8,18.2-32.4,30.5-46.3c0.1-0.1,0.2-0.3,0.3-0.4
		c2.4-2.1,5.2-5.4,8-2.8s-0.1,5.6-2.2,8c-13.9,15-24.4,32.1-32.7,50.7c-5.5,12.4-11.4,24.6-17.1,36.9
		C24.6,205.6,23.4,207.8,20.1,205.8z"/>
	<path class="st4" d="M93,94.2c-0.6,2.1,0.2,4.7-2,6.4c-1.7,1.3-3.3,2.4-5.4,1.3s-2.1-2.9-1.3-4.8c0.8-2,1.8-4.1,4.5-3.8
		c1.1,0.2,2.2,0.5,3.3,0.9C92.4,93.8,92.7,93.8,93,94.2z"/>
	<path class="st5" d="M93,94.2h-0.4h-0.4c-0.1-0.7-0.2-1.3-0.2-2h1.8c0.1,0.3,0.1,0.6,0,0.9C93.5,93.4,93.2,93.8,93,94.2L93,94.2z"
		/>
	<path class="st6" d="M92.9,94.2c0.3-0.3,0.6-0.7,0.9-1.1l0.2,1L92.9,94.2z"/>
</g>
<g id="blue_elements">
	<path class="st7" d="M33.2,375.8c-5.9-8.1-6.3-17.6-6.7-27c-0.4-8.7,0.4-17.6-5-25.4c-0.6-0.9-1.3-2.4-0.1-3.1s2.5,0.1,3.4,1.1
		c3.3,3.5,4.7,7.9,5.5,12.5c1,5,1.4,10.2,1.4,15.3c-0.1,8.3,1.5,16.4,2.4,24.6C34.5,374.8,35.1,375.9,33.2,375.8z"/>
	<path class="st8" d="M255.9,88.8c2.4,0,2.8,2.3,3.6,3.7c4.8,8.9,9.8,17.8,12.4,27.8c0.5,1.3,1.4,2.7-1.1,2.9l-15-29.8
		C255,91.8,254.4,90.3,255.9,88.8z"/>
	<path class="st9" d="M207.1,424.9c-2.9,7-17,15.7-22.4,14.9c-0.6-0.1-1.2-0.4-1.7-0.8c-0.4-0.5-0.3-1.1,0.2-1.5
		c0.1-0.1,0.2-0.1,0.3-0.2C191.7,434.9,198.7,430,207.1,424.9z"/>
	<path class="st10" d="M272.9,127c3.4,0.2,2.4,3.1,3.2,5c-0.1,0.6-0.6,1-1.2,1.1C273.5,131.4,272.8,129.2,272.9,127z"/>
	<path class="st11" d="M270.8,123.2c1.2-0.6,1-1.8,1.1-2.9c1.6,2.1,2.4,4.3,1.1,6.8C271.8,126.1,271,124.7,270.8,123.2z"/>
	<path class="st12" d="M274.9,133.1l1.2-1.1c0.9,0.9,0.9,2,0.9,3.1C275.5,135.3,274.8,134.6,274.9,133.1z"/>
	<path class="st13" d="M33.2,375.8l1-2c0.8,1.2,2,2.8,0.9,3.7S33.4,376.9,33.2,375.8z"/>
</g>
<g id="yellow_inside">
	<path class="st14" d="M115.9,388.9c-2.8-7-2.7-14.6-3.7-21.9c-1.5-10.9-4.1-21.4-6.4-32.1c-2.6-12.3-5-24.7-9.7-36.4
		c-3.3-8.6-7.2-17-11.7-25.1c-9-15.8-16.3-32.3-19.1-50.3c-1.4-8.9-1.2-18.1,3.5-26.6c5.1-9.2,12.7-12.3,21.9-7.4
		c3.7,2,5.6,1.4,7.5-2c5.1-9.2,13-15.5,22.3-19.8c13-6,27.5-3.4,38.4,9.4c4.6,5.4,8.5,11.5,8.6,19.1c0,1.8,0.9,2.6,2.7,2.9
		c4.9,0.7,9.8,1.6,14.7,2.5c2.8,0.5,4.1-0.2,4.7-3.4c1-6.4,2.6-12.7,4-19c1.2-5.9,4.3-11.2,8.9-15.2c4.6-4.6,10.4-4.9,16.3-4.6
		c2.3,0,4.6,0.6,6.7,1.6c5.1,2.6,8.1,6.9,9.6,12.2c0.5,7.6,0.5,15.2-5.1,21.4c-7.2,8.6-17.1,14.5-28.2,16.6c-2.9,0.6-4,1.9-4.2,4.5
		c-1.5,18.7-3.8,37.2-4.7,56c-1.2,24.6-1.1,49.4-4.1,73.9c-0.9,7.2-1,14.5-2.1,21.8c-0.2,1.5-0.6,2.9-1.1,4.3
		c-0.6,1.6-2.2,2.6-3.9,2.6c-2.1,0.1-2.8-1.5-3.3-3.1c-1.2-3.6-1-7.2-0.5-10.8c1.5-10.7,2.1-21.4,2.9-32.1
		c2.1-28.6,0.9-57.3,4.3-85.8c1.1-9.2,1.4-18.5,2.2-27.7c0.1-1.8-0.3-2.7-2.2-3c-5.6-0.7-11.1-1.6-16.7-2.6
		c-1.9-0.3-2.7,0.4-3.5,1.9c-2.1,4.1-5.5,6.5-9.6,8.2c-5.3,2.2-9,1.6-11.6-2s-2.4-9.1,1-12.8c2.7-2.9,5.6-5.8,9.9-6.2
		c2.6-0.2,2.8-1.4,2.2-3.6c-4.2-16.1-23.2-29.1-41.8-12.3c-3.5,3.3-6.7,7-9.3,11c-2.1,3.1-2.8,6.2-1,9.8c1.4,2.9,2,6,0.4,9.1
		c-1.2,2.5-3.2,3.9-6,3.5s-5.3-1.2-6.1-4.2c-0.6-2.1-0.9-4.2-1.1-6.4c-0.4-5.3-2.8-8.1-7.9-8.9c-3.9-0.6-7.4,2-9,6.8
		c-2.5,7.7-1.8,15.5-0.3,23.1c2.9,14.4,8.9,27.7,15.8,40.6c8,15.1,14.1,31.1,18.3,47.6c4.4,16.8,7.8,33.9,10.2,51.1
		c1.1,7.8,2.8,16.1-1.3,23.8L115.9,388.9z"/>
	<path class="st15" d="M234.3,172.7c-1.7-4.5-4.8-8.4-8.8-11c-0.7-1.3-3.2-0.8-3-3c4.6,0,11.2-1.8,13.2,0.5
		c2.4,2.6,0.7,8.9,0.8,13.5c0,0.7,0,1.3,0,2C234.6,175.3,235.4,172.9,234.3,172.7z"/>
	<path class="st16" d="M234.3,172.7l2.2,1.9v7c-1.9,2.1-0.6,5-1.9,7.4c-1.1,2.1-1.6,4.6-4.3,5.5C234.4,188,235.8,180.2,234.3,172.7z
		"/>
	<path class="st17" d="M219.6,159.7c-6-0.3-11.8,0.7-16.9,4.1c1-3.5,4.8-3.2,6.9-5.1h10c0.3,0.2,0.4,0.4,0.3,0.6
		S219.7,159.7,219.6,159.7z"/>
	<path class="st18" d="M219.6,159.7v-1h3c0.7,1.3,2.6,1.4,3,3L219.6,159.7z"/>
	<path class="st19" d="M224.6,180.5c-0.4,4.6-3.6,8.4-7.3,11.8s-8.2,5.6-12.8,7.6c-3.1,1.4-4.9,1-4.2-3.3c1-6.7,2.7-13.3,5.3-19.6
		c1-2.5,2.9-4.5,5.3-5.6C218.7,167.5,224.5,171,224.6,180.5z"/>
	<path class="st20" d="M155.2,207.8c-0.7,1.8-1.7,2.8-3.9,2.4C152.1,208.4,153,207.4,155.2,207.8z"/>
</g>
<g id="yellow_elements_bottom">
	<path class="st14" d="M375.8,750.7c-20.2-4.8-37.6-15.3-54.7-26.5c-10.2-6.5-19.6-14.3-27.7-23.2c-5.3-5.9-8.6-13-11.6-20.2
		c-5.1-11.9-11.1-22.9-22.1-30.7c-8-5.4-16.7-9.6-26-12.3c-17.5-5.4-35.7-7.7-53.2-12.8c-13.3-3.8-26.5-8-36.8-17.9
		c-8.8-8.5-12.6-18.9-11.4-31c0.3-3.3,2.4-6.3,6.1-6s3.6,4.1,3.2,6.3c-2.4,15.7,6.6,24,18.7,30.7c13.3,7.3,27.8,10.8,42.5,13.7
		c18,3.6,36.1,7.4,52.5,16.2c15.5,8,27.4,21.6,33.4,38c5.6,15,15.4,26.8,28.2,36c14.1,10.2,29.2,19.1,45,26.4
		c14.8,6.8,30.5,7.7,46.4,7.2c9.6-0.3,19.2-0.6,28.8-1.6c3.6-0.4,5,1.4,6.6,3.7v2c-1.2,2.3-3.4,3.1-5.8,3.2
		c-7.2,0.3-14.3,1.7-21.6,1.8c-11.5,0-23,0.4-34.4-1.5C379.8,752,377.8,751.4,375.8,750.7z"/>
	<path class="st21" d="M111.1,499.1c3.1-2.7,6.6-3,10.6-2.3c19.8,3.5,37.4-0.6,52.1-15c1.2-1.2,2.2-2.5,3-4
		c2.9-4.8,1.6-9.1-3.4-11.4c-5.6-2.6-11-5.4-15.6-9.5c-0.9-0.8-1.8-1.5-1.7-2.8h2c3.5,3.2,8.2,2.8,12.3,4.2
		c5.5,1.9,10.9,4.1,12.5,10.2c1.8,6.9-1.2,12.9-6.2,17.5c-12.6,11.7-27.9,16.9-44.9,16.9c-3.8,0-7.5-1.3-11.3-1.7
		c-1.5-0.1-3.6-1.3-4.6,0.5c-0.9,1.6,0.6,3.3,1.5,4.5c4.2,5.5,9.5,9.7,16.3,11.6s13.4,3.5,20.1,5.4c3.2,0.9,6.5,1.6,8.8,4.3
		c1.2,1.4,2.2,3.3,0.5,5c-2.1,2.1-2.4-0.8-3.5-1.5c-3.4-2.1-7.3-3-11.1-4c-9.5-2.4-19-4.5-27.2-10.6c-4.3-3.2-6.7-7.6-10.2-11.4
		L111.1,499.1z"/>
	<path class="st22" d="M416.7,752.8c6.3-0.6,12.5-1.4,18.8-1.8c2.8-0.3,5.5-1,8.1-2.2c1.1,5.1-0.8,6.3-6,6.2
		c-15-0.4-30-0.2-44.9-0.2c0-0.3,0-0.6,0-1c5.9-1.1,11.8-0.2,17.7-0.5C412.5,753.2,414.7,753.9,416.7,752.8z"/>
	<path class="st23" d="M416.7,752.8c-5.1,2.1-10.4,0.7-15.6,1c-2.8,0.2-5.6,0-8.4,0c-5.8-0.3-11.7,0-16.9-3.2
		C389.4,753.5,403.1,752.9,416.7,752.8z"/>
</g>
<g id="bulb_shadow">
	<path d="M89.9,414.7c36.8,9.7,73.4,14.2,110.4,1.6c-16.1,12.3-34.5,20.6-54,20.3C125.6,436.1,105.6,428.3,89.9,414.7z"/>
	<path d="M117.3,508.2c19.4,10.2,38.8,9.2,58.4,1.1c-9.5,7.5-18.8,15.3-31.6,14.4c-10.8-0.7-18.6-7.9-27.6-12.6L117.3,508.2z"/>
	<path d="M114.4,474.2c21.1,12,42.1,11.9,63-0.6c-1,3.4-10.4,8-17.7,10.5C142.5,489.9,128.2,483.8,114.4,474.2z"/>
</g>
<g id="bulb_inside">
	<path d="M211,165c11.9,2.7,17.2,11.2,18.4,22.4c1.1,10.6-1,21.2-6.1,30.5c-7.1,13.4-19.1,22.8-27.5,35.1c-2.7,4.2-5.1,8.5-7.2,13
		c-6.5,13-7,27-7.5,41.1c-0.7,19-2.2,38-3.3,57.7c12.2,4.2,26.6,5.2,37.9,16.6c-7.7-2.7-13.9-5.1-20.3-7.1c-4.9-1.5-10-2.4-15-3.5
		c-3.1-0.7-4.1,1.1-4.3,3.9c-0.2,3.9-0.6,7.9-0.9,11.8l-1.7,0c-0.4-5.1-0.8-10.2-1.2-15.9h-56.7l-0.9,15.7H113
		c-0.4-3.5-1.2-7-1.1-10.5c0.2-5.1-2.7-5.8-6.3-4.8c-9.2,2.6-18.4,5.6-27.6,8.5c-1.4,0.6-2.9,1-4.4,1.1c7.7-7.3,17-11.2,27.2-13.2
		c9.4-1.9,9.4-1.8,8.9-11.3c-1.2-20.8-2.4-41.5-3.6-62.3c-1-18.8-8.2-35-20.3-49.3c-5.9-7-11.9-13.9-17.5-21
		c-5.5-7-8.1-15.2-9.5-23.9c-0.2-1-0.5-1.9-0.9-2.8v-8c0.7-2.6,1.2-5.1,2-7.7c2.4-7.8,6.9-13.7,15.3-15.3s13.8,2.9,17.6,9.5
		c4,7,7.2,14.6,11,21.8c1.2,2.4,2.9,4.4,5,6.1c3.2,2.5,8.1,0.9,10.9-2.8s-1-4.6-2.7-6.5c-3.8-4.4-6.4-9.3-5.6-15.4
		c0.5-3.6,2.2-6.4,6-7c3.5-0.6,6.8,1.6,7.7,5.1c1.4,4.7,2.2,9.6,2.4,14.6c0.1,2.9,0.9,4.1,3.6,4.8c8.2,2.3,16.9,2.3,25.1,0
		c3.2-0.9,4.1-1.9,4.1-5.3c0-6.1,0.1-12.6,5-17.1c1.5-1.4,4.4-2.4,6.1-1.8c2.2,0.9,4,2.7,4.7,5c1.8,7.4-0.6,13.6-6.5,18.5
		c-1.1,0.9-2.4,3.4-2,3.8c1.6,1.9,3.6,4.5,5.8,4.7c2.5,0.3,6.4-0.6,7.8-2.4c2.9-3.7,4.6-8.3,6.8-12.6c5-10.1,8.5-21.6,22-23.8
		L211,165z M173.4,364.5c0.5-7.5,1-14.8,1.3-22c0.4-10.8,0.5-21.5,1.1-32.3s0.4-21.7,2.5-32.1c3.5-17.7,13.5-32,26.2-44.7
		c7.8-7.7,14.2-16.6,17.4-27.3c2.8-9.3,2.9-18.6-1.1-27.7c-3.2-7.4-13.4-9.6-18.4-3.5c-2.9,3.6-5,7.8-7.1,11.9
		c-3.2,6-5.8,12.4-9.5,18c-1.6,2.4-5.1,4.1-8.1,4.8c-8,1.7-13.3-2.2-16.1-10.1c-12,5.2-23.7,4.6-35.4,0.3c-0.7,1.2-1.1,2.1-1.6,2.9
		c-5.1,8.6-15.1,10.1-21.8,2.7c-2.8-3.1-4.6-7.2-6.6-11c-3.2-6-5.9-12.3-9.5-18c-3.4-5.3-9-6.6-14-3.9c-5.8,3.1-7.6,8.7-8.3,14.6
		c-2.2,18.9,6.4,33.4,19,46.2c15.1,15.2,26,32.5,27.3,54.5c1.1,19.1,1.7,38.2,2.6,57.3c0.3,6.6,0.8,13.2,1.2,19.5L173.4,364.5z
		 M117.9,176c-2.7,6.1-0.9,11.6,4.6,14.8C122.6,185.3,123.3,180.1,117.9,176z M165.7,191.3c5.4-4.2,6.7-8.1,5-14.4
		C166.4,178.2,165,182.1,165.7,191.3L165.7,191.3z"/>
	<path class="st24" d="M117.9,176c5.3,4.1,4.7,9.3,4.6,14.8C117,187.6,115.2,182.1,117.9,176z"/>
	<path class="st24" d="M165.7,191.2c-0.6-9.2,0.8-13,5-14.4C172.4,183.2,171.1,187.1,165.7,191.2z"/>
</g>
<g id="bulb_outline">
	<path d="M4,223c0.7-5.4,1.5-10.8,2.2-16.2c3-21.4,11.2-40.9,21.7-59.7C43,119.8,62.8,96.2,83.2,72.8c15.7-17.9,30.6-36.4,46-54.5
		c3.5-4,7.4-7.7,11.7-10.8c1.4-1,5.2-1,6.3,0.2c7.8,7.6,15.5,15.4,22.6,23.6c14.7,16.9,29.1,34.1,43.5,51.2
		c13.5,16,27.2,31.7,37.8,49.9c5.8,10,12.2,19.8,17.2,30.2c9.5,19.8,15.5,40.7,15.3,62.8c-0.1,18.8-4.3,36.6-14.8,52.8
		c-7.4,11.3-14,23.1-19.7,35.3c-2.9,6.1-3.6,13.5-4.2,20.3c-1.1,12.2-1.1,24.5-1.9,36.7c-0.6,12-6.2,23.2-15.5,30.8
		c-3.3,2.9-3.5,5.9-1.3,9.2c6.4,9.8,7.9,20.2,4.2,31.3c-0.4,1.2-0.6,2.9-1.4,3.6c-4.6,4.2-3.2,8.9-2.6,14.1
		c0.5,5.7-0.1,11.5-1.9,16.9c-1.5,4.8-4.1,9.6-9,12.7c-2,1.3-3.1,4.5-3.9,7.1c-4.3,14.5-8.6,29-18.4,41c-8.8,11-21.3,18.4-35.1,21.1
		c-4.2,0.9-8.5,1.5-14.2,2.5c0,13.2-1.4,26.7,0.4,39.7c2,14.7,13.6,22.5,27.1,25.5c12.1,2.6,24.7,3.3,37.1,4
		c19.9,1,39.9,1.2,59.9,1.8c15.2,0.5,27.6,6.9,35.6,19.7c5.8,9.5,10.7,19.5,14.8,29.9c8.2,20.5,20,38,40.6,47.1
		c11.1,4.9,23.2,8.8,35.3,10.3c24.5,3.1,49.3,4.7,74.1,6.3c30.5,2,61.1,3.4,91.7,5.1c14.6,0.8,29.2,1.6,43.9,2.6
		c4.8,0.3,9.6,1,14.2,6.5c-4.9,0.9-8.8,2.4-12.6,2.3c-13.3-0.5-26.6-1.6-39.9-2.3c-27.6-1.5-55.2-2.8-82.8-4.5
		c-27.1-1.7-54.2-3.6-81.2-6c-17.7-1.4-34.9-6.4-50.5-14.8c-17.7-9.7-29.9-24.5-37.6-43.2c-4.2-10.3-8.4-20.7-13.6-30.5
		c-7.6-14.3-20.2-20.9-36.5-21.1c-20.3-0.2-40.7-0.6-61-1.5c-13.9-0.6-27.9-1.2-41.2-6.6c-17.3-7.2-27.4-23.3-25.5-42
		c0.9-8.3,1.5-16.6,2.6-24.8c0.4-3.5-1.1-4.7-4.2-5.2c-26-4.1-43-18.8-51.6-43.5c-2.4-6.9-4.4-13.9-6.8-20.8c-0.8-2.1-2.1-4-3.7-5.5
		c-9.3-9-13.6-19.6-10.3-32.4c0.9-3.1,0.4-6.5-1.4-9.1c-6.2-10.5-6.8-21.7-1.1-32.9c1-1.9,2.6-3.8,2.9-5.8c0.3-2.3,0.3-5.9-1.1-7.1
		c-12.4-10.2-16.4-23.9-17-39.1c-0.3-8.5-0.5-17-0.5-25.5c-0.2-17.8-8.1-32.6-17.2-47.2c-9.8-15.7-19.3-31.6-21.2-50.6
		C5,235.5,4.5,231.3,4,227V223z M143.4,5.8c-3.3,4.1-5.8,7.2-8.3,10.2c-14,16.9-27.8,34-42,50.7c-21,24.8-43.1,48.8-58.8,77.7
		c-11.4,21-21.1,42.6-23.5,66.9c-2.2,22.1,1,43.1,12.7,62.4c4.5,7.4,9,14.8,13.5,22.2c8.5,14.3,13.3,29.6,13.2,46.4
		c0.1,10,0.7,20,1.8,29.9c1.2,11.2,6.9,20.1,16,26.5c19,13.5,41.3,17,63.7,19.6c15,1.7,29.7-0.5,44.5-3c14.6-2.4,28.8-6.3,40.9-14.7
		c6.3-4.4,11.6-10.2,15.4-16.9c6.3-11.5,5.9-24.9,5.4-37.5c-0.9-22.3,7.3-41.3,18.6-59.7c6-9.6,11.3-19.7,15.9-30
		c6.5-15.3,6.4-31.6,4.6-47.9c-1.5-13.1-4.6-25.8-10.7-37.6c-7.1-13.8-13.3-28.2-21.6-41.2c-8.4-13.2-18.7-25.2-28.5-37.5
		c-8.6-10.8-17.7-21.3-26.6-32c-8.5-10.3-16.9-20.8-25.5-31C157.9,21.7,151.2,14.6,143.4,5.8z M199.8,467.4c4.5-3.9,7.7-7.6,11.7-10
		c9-4.9,15.1-13.8,16.4-24c1.2-7.2-0.5-14.5-4.6-20.4c-1.4-2-5.4-3.9-7.6-3.3c-4.5,1.1-8.4,4.5-12.8,6c-7.3,2.5-14.9,4.5-22.4,6.3
		c-6.4,1.5-13,3.6-19.5,3.5c-19.2-0.4-38.7,1.4-57.2-6.3c-1.3-0.5-2.6-0.7-3.9-0.7c-9.1-0.1-16.9-4.3-24.9-7.8
		c-5.2-2.3-8.8-1.3-11.2,4c-7.8,16.8-2.9,32.9,12.7,42.8c4.1,2.6,7.6,6.1,11.4,9.1l-1.1,1.7c-3.4-1.8-7-3.4-10.3-5.5
		s-6.4-4.5-10.1-7.1c-3.3,12.6,1.2,22.1,9,30.6c1.9,2.1,4.2,4.1,5.1,6.6c1.7,4.7,1.6,10.1,3.8,14.4c4.8,9.8,9.3,20.2,16.1,28.5
		c12.2,15,29.4,19.6,48.3,18.5c10.7-0.6,20.6-3.6,29.4-9.8c16.1-11.3,23.3-28.7,28.9-46.4c1.5-5.2,4.1-10.1,7.6-14.3
		c6.6-8,10.7-16.6,6.9-27.4C214.1,459,210,467.4,199.8,467.4z"/>
</g>
</svg>
