<!--?xml version="1.0" encoding="utf-8"?-->
<!-- Generator: Adobe Illustrator 24.1.0, SVG Export Plug-In . SVG Version: 6.00 Build 0)  -->
<svg class="car" version="1.1" id="car" xmlns="http://www.w3.org/2000/svg" xmlns:xlink="http://www.w3.org/1999/xlink" x="0px" y="0px" viewBox="0 0 1531 787" style="enable-background:new 0 0 1531 787;" xml:space="preserve" width="1531" height="787">
<style type="text/css">
	.st0{fill:none;stroke:#2F1EFF;stroke-width:12;stroke-linecap:round;stroke-linejoin:round;stroke-miterlimit:10;}
	.st1{fill:none;stroke:#FBFF12;stroke-width:19;stroke-linecap:round;stroke-linejoin:round;stroke-miterlimit:10;}
	.st2{fill:none;stroke:#000000;stroke-width:9;stroke-linecap:round;stroke-linejoin:round;stroke-miterlimit:10;}
	.st3{fill:none;stroke:#000000;stroke-width:12;stroke-linecap:round;stroke-linejoin:round;stroke-miterlimit:10;}
</style>
<path id="BLUE_FRONT" class="st0" d="M1166.4,362.8c6.6,13,22,23.7,38.4,26.7"/>
<path id="BLUE_ABOVE_PLUG" class="st0" d="M58.3,160.1c-10.9,3.8-22.2,6.2-33.7,7.1"/>
<path id="BLUE_BEHIND_THE_CAR" class="st0" d="M493.3,385.5c-13.8,6.9-30.4,8.2-45,3.3"/>
<path id="BLUE_UNDER_PUG" class="st0" d="M114.7,216c-3.3,7.8-5.2,16.3-5.4,24.8"/>
<path id="YELLOW_MIDDLE" class="st1" d="M948.5,540.5c-88.3-2.4-37.6-93-82.5-127.5"/>
<path id="YELLOW_BACK_BOTTOM" class="st1" d="M441.5,509.5c-34.6,8.2-71.1,13.3-105.5,2"/>
<path id="YELLOW_BACK" class="st1" d="M350,224.5c-2.2-36.3-23.9-82.8-67.5-68"/>
<path id="YELLOW_FRONT" class="st1" d="M1452.5,503.2c-15.6-13.5-30.9-29.1-51-35.5"/>

<path id="SHAPE_INSIDE_THE_CAR_ABOVE" class="path st2 svg-elem-1" d="M1185.5,423.7c-25.6-9.2-54.6-5.2-81.2-8.7c-17.8-2.3-35.2-7.3-53.2-8.6
	c-17.3-1.2-34.8,1.3-51.1,7.2c-9.8,3.5-19.4,8.6-25.7,16.8c-2.3,3-4.1,6.9-3,10.5c0.8,2.4,2.8,4.2,4.8,5.7
	c8.2,5.9,18.4,8.4,28.5,9.9c13.3,2,27.2,2.3,40-1.9c35.7-11.8,47.6-53.3,38.5-86.8c-3-11.2-7.9-21.8-14.1-31.6
	c-73.5-116.7-249.8-113-355.2-49.2c-47,28.4-87.2,68.5-114.7,116.2"></path>
<path id="SHAPE_INSIDE_THE_CAR_BELOW" class="path st2 svg-elem-2" d="M889.3,605c2.6-10.4,4-21.8-0.7-31.8c-3.7-7.8-11.8-13.9-20.4-13.5
	c-5.4,0.3-10.4,3-15.6,4.7c-5.2,1.7-11.4,2.2-15.6-1.3c-4.6-3.9-4.7-10.8-3.8-16.8c1.5-9.7,4.9-19.1,7.5-28.5
	c7.3-26.4,8.1-56.6-7.2-79.3c-17.7-26.3-52.1-35.5-82.2-32c-58.9,6.8-104.2,45.7-154.3,73.2c-3.4,1.8-6.8,3.7-10.6,4.2
	c-13.2,1.9-14.1-11.7-10.3-20.9c6.5-15.9,21.3-27.7,26.1-44.2c1.2-4.1,1.6-9-1.2-12.3c-4.3-5.1-12.6-2.7-18.5,0.4
	c-19.8,10.5-37.4,25.2-51.1,43"></path>
<path id="PATH_LIGHT" class="path st2 svg-elem-3" d="M1464.5,548c-7.8-5.5-38.3-20.4-47.1-23.7c-5.4-2-11.6-2.3-17.4-3.7
	c-11.8-2.7-23.1-6.9-34.5-11.1c-12.9-4.7-25.2-10.6-37-17.6c-8.3-4.8-16.2-10.2-23.6-16.4c-14.3-11.9-45.4-26.8-63.4-32.3
	c-0.5-0.1,13.3,0.5,15.4,3.8"></path>
<path id="SHAPE_ABOVE_WHEEL_FRONT" class="path st2 svg-elem-4" d="M1122.7,619.6c0,0,43.7-116.3,157.1-61.7c107.7,51.9,61,42.1,141.1,67.5"></path>
<path id="WHEEL_FRONT" class="path st2 svg-elem-5" d="M1394,629.6c-6.6-52.8-45.8-91.3-89.2-90.9c-37.3,0.3-71.6,29.4-84.1,72.3"></path>
<path id="WHEEL_BACK" class="path st2 svg-elem-6" d="M601.4,610.3c12.4-42.9,11.2-90.9,93-90.9c43.4,0,82.6,38.1,89.2,90.9"></path>
<path id="INSIDE_FRONT_WHEEL" d="M1392.3,623.5c-0.2-0.2-0.5-0.6-0.9-0.9c-0.3-0.3-0.7-0.7-1.1-1c-0.8-0.7-1.6-1.3-2.4-2
	c-1.6-1.3-3.3-2.5-5-3.7c-3.4-2.4-6.9-4.7-10.5-6.9c-7.1-4.4-14.4-8.3-21.9-11.8c-3.7-1.7-7.4-3.3-11.2-4.7
	c-3.8-1.4-7.5-2.8-11.3-3.8c-3.7-1.1-7.5-2.1-11.2-2.8c-3.7-0.8-7.4-1.3-11-1.5c-3.6-0.3-7.2-0.1-10.6,0.4s-6.6,1.4-9.7,2.5
	c-3,1-5.9,2.1-8.7,3.1c-2.8,1.1-5.7,2-8.7,3.2s-6,2.5-9.2,4c-3.1,1.6-6.4,3.4-9.8,5.3c-3.3,2-6.9,4.1-10.6,6.4
	c-1.9,1.1-3.7,2.3-5.7,3.5s-3.9,2.5-6.2,3.6h-0.1c-1,0.5-2.3,0.1-2.8-0.9c-0.1-0.3-0.2-0.6-0.2-0.9c-0.2-5.1,0.4-9.9,1.5-14.7
	c0.3-1.2,0.6-2.4,0.9-3.6c0.4-1.2,0.8-2.3,1.2-3.5c0.2-0.6,0.4-1.2,0.6-1.7l0.7-1.7c0.5-1.1,1-2.3,1.5-3.4c2.2-4.5,5-8.7,8.3-12.7
	s7.2-7.6,11.6-10.8c4.3-3.2,9.3-5.8,14.4-7.6c5.2-1.8,10.6-2.8,16-3s10.7,0.1,15.8,0.9c5.1,0.8,10,1.9,14.8,3.1
	c4.8,1.3,9.4,2.8,13.8,4.6s8.7,3.9,12.8,6.1c4.1,2.3,8,4.7,11.8,7.3s7.4,5.3,10.9,8.1c7,5.7,13.5,11.8,19.5,18.3
	c3,3.3,5.9,6.6,8.6,10.1c1.3,1.8,2.7,3.5,3.9,5.4c0.6,0.9,1.2,1.9,1.8,2.9c0.3,0.5,0.6,1,0.8,1.5c0.3,0.5,0.5,1.1,0.8,1.8
	c0.3,0.9-0.1,1.9-1.1,2.3c-0.7,0.2-1.4,0.1-1.9-0.4L1392.3,623.5z" class="path fill svg-elem-7"></path>
<path id="INSIDE_BACK_WHEEL" d="M778.2,614.4c-0.5-0.4-1.1-0.9-1.5-1.3c-0.4-0.4-0.9-0.8-1.3-1.3l-2.4-2.5c-1.6-1.7-3.2-3.2-4.7-4.8
	c-3.2-3.1-6.4-6-9.9-8.6c-1.7-1.3-3.5-2.5-5.2-3.6c-0.9-0.6-1.8-1.1-2.7-1.6c-0.4-0.3-0.9-0.5-1.3-0.8l-1.4-0.7
	c-3.6-2-7.4-3.5-11.2-4.8c-15.4-4.9-31.5-4.2-47.3-0.8c-7.9,1.9-15.6,5.2-23,8.8l-1.4,0.6l-1.4,0.7c-0.9,0.4-1.9,0.9-2.8,1.3
	c-1.9,0.9-3.8,1.6-5.7,2.3c-1.9,0.8-3.9,1.5-5.9,2.2s-4,1.2-6,1.9c-8.2,2.5-16.6,4.8-25.4,6.8c-4.4,1.1-9,1.8-13.7,2.7
	c-2.4,0.4-4.7,0.8-7.2,1c-2.5,0.3-5,0.5-7.6,0.5h-0.1c-1.2,0-2.1-0.9-2.1-2.1c0-0.3,0.1-0.7,0.2-1c1.2-2.3,2.6-4.5,4-6.6
	s2.9-4.1,4.4-6.1s3.1-3.8,4.8-5.6c1.6-1.8,3.3-3.5,5.1-5.2c7-6.7,14.7-12.5,23.1-17.4c2.1-1.3,4.2-2.4,6.4-3.4s4.4-2,6.7-2.9
	s4.7-1.5,7-2.2c2.4-0.6,4.7-1.3,7.2-1.7l7.4-1.2l1.8-0.3l1.9-0.2l3.7-0.4c4.9-0.6,10-0.8,15-1.2l7.6-0.2c1.2-0.1,2.5,0,3.8,0.1
	l3.8,0.2c2.5,0,5.1,0.4,7.6,0.7c1.3,0.2,2.5,0.3,3.8,0.5l3.8,0.7c1.3,0.3,2.5,0.5,3.8,0.8l3.7,1.1c1.2,0.4,2.5,0.7,3.7,1.1l3.6,1.3
	c2.4,0.8,4.7,2,7,3.1c1.2,0.5,2.3,1.2,3.4,1.8l3.3,1.9c8.6,5.4,16.2,12.1,22.1,19.9c3,3.8,5.6,7.8,7.9,11.9c1.1,2,2.2,4.1,3.3,6.1
	l1.6,3c0.3,0.5,0.5,0.9,0.8,1.4c0.1,0.3,0.3,0.4,0.4,0.6l0.4,0.6l0.2,0.4c0.5,0.8,0.3,1.9-0.6,2.4
	C779.6,614.9,778.7,614.8,778.2,614.4z" class="path fill svg-elem-8"></path>
<path id="SHADOW_FRONT_WHEEL" d="M1211,683c7.9-1.8,15.8-2.4,23.5-2.7c7.8-0.2,15.5,0,23.3,0.7c7.7,0.6,15.4,1.7,23,3.2
	c7.6,1.6,15.3,3.5,22.8,6.7c-7.9,1.9-15.8,2.5-23.5,2.8c-7.8,0.2-15.5,0-23.3-0.7c-7.7-0.7-15.4-1.7-23-3.2
	C1226.2,688,1218.6,686.1,1211,683z" class="path fill svg-elem-9"></path>
<path id="PLUG_02" class="path st3 svg-elem-10" d="M48.1,197c0,0,42.9-38.5,54-12.1S71,230.7,71,230.7"></path>
<line id="PLUG_01" class="path st3 svg-elem-11" x1="67.9" y1="182.7" x2="91.8" y2="216.7"></line>
<path id="outline" class="st3" d="M106.6,179.8c34.6-26.1,60.5-30.3,94.4-44.8c180.1-76.7,316,130.4,103,197l-3.5,4
	c-49.7,11.7-102.1,31.6-127.5,79l2,5.5c30.4,19.2,65.7,23.3,99,33.5l8.5-4.5c101.8-263.1-189.7-251-146.5-79
	c3.6,22.3,39.4,40.9,37,52.5c-33.4,66,80.8,98.2,100.6,32.5c36.1,0.3,72.2-0.8,108.2-3.8c38-3.2,75.6-8.8,113-16.4
	c6.6-1.3,34.4-11.3,40.1-4c5.8,7.4-11.6,31.3-14.7,37.2c-21.5,40.1-39.7,82.1-58.9,123.4c-1.6,3.4-3.5,6.8-4.6,10.2
	c41,11.6,88.1,2.1,130.3,4.9c23.3,1.5,20.4,10.7,30.9,28.9c4.6,8,22.5,38.6,33,38.9c-19.8-0.6-39.6-1.2-59.4-1.8
	c22.8,0.4,45.3,4.3,68,6.4c22.7,2,46.1,2,67.7-5.2c21.6-7.2,41.4-22.6,49.4-43.9c2.2-6,3.7-12.5,7.9-17.2
	c12.3-13.6,48.6-9.1,65.2-8.6c29.9,0.9,59.7,4.7,89.5,7.2c80.2,6.8,159.5,11.8,239.9,4.7c14.7-1.3,39.6-10.6,43.5,3.7
	c8.6,31.4,17.1,55.1,62.1,63.9c63.9,12.4,107.3-36.4,108.7-48.4c1.7-15.2,30.1-8.7,47.3-10.2c33.1-2.8,102.1,0,55.6-46.9
	c-39.2-40.4-83.2-76.3-134.6-99.9c-60.4-33.9-132.8-33.3-194.5-63.5c-63.6-37-79.7-118.3-140.7-158.8
	c-183-122.7-385.8,18-490.5,174.2"/>
</svg>
