<!--?xml version="1.0" encoding="utf-8"?-->
<!-- Generator: Adobe Illustrator 24.1.0, SVG Export Plug-In . SVG Version: 6.00 Build 0)  -->
<svg version="1.1" id="car" class="car" xmlns="http://www.w3.org/2000/svg" xmlns:xlink="http://www.w3.org/1999/xlink" x="0px" y="0px" viewBox="0 0 2267.7 1275.6" style="enable-background:new 0 0 2267.7 1275.6;" xml:space="preserve" width="2267.699951171875" height="1275.5999755859375">
<style type="text/css">
	.st0{fill:none;stroke:#000000;stroke-width:9;stroke-linecap:round;stroke-linejoin:round;stroke-miterlimit:10;}
	.st1{fill:none;stroke:#000000;stroke-width:12;stroke-linecap:round;stroke-linejoin:round;stroke-miterlimit:10;}
</style>
<text transform="matrix(1 0 0 1 1153.4717 58.7869)" class="path"><tspan x="0" y="0">And as we travel a few years forward in time, we meet two brothers - Charles and </tspan><tspan x="0" y="36">Frank Duryea. Charles had his hands full with his bicycle business, but in 1886 a gas</tspan><tspan x="1031.9" y="36">-</tspan><tspan x="0" y="72">oline engine caught his attention. ”Seems like it’s going to power a carriage or a </tspan><tspan x="0" y="108">wagon”, he thought - and not so long after the brothers came up with one of the </tspan><tspan x="0" y="144">most revolutionary inventions, a car. </tspan><tspan x="0" y="180">Tale as old as time, fame can have its drawbacks. The brothers ended up in a disa</tspan><tspan x="1003" y="180">-</tspan><tspan x="0" y="216">greement about who was actually behind this great invention. Whereas Charles </tspan><tspan x="0" y="252">claimed to be the leader of the project, Frank took the credit of making the engine </tspan><tspan x="0" y="288">and transmission perfect while his brother was away. However, despite the disa</tspan><tspan x="987" y="288">-</tspan><tspan x="0" y="324">greements of the brothers, the car made a successful appearance in Springfield in </tspan><tspan x="0" y="360">1893.</tspan></text>
<path id="yellow_x5F_line" class="button-yellow path" d="M1839.6,992.4c9.5,5.1,20.2,9.9,30.9,7.8c7.3-1.4,13.6-5.9,19.8-10
	c13-8.8,26.7-16.9,41.8-20.8c15.1-3.9,32-3.2,45.4,4.8c12.2,7.3,20.6,20,33.4,26.2c31.3,15.1,69.9-15.9,102.2-3
	c13.1,5.2,23,17.7,25.1,31.6c0.6,4.1,0.6,8.3-0.7,12.2c-4,12.2-18.5,18-24,29.6c-5.6,11.7-0.4,25.6,6.2,36.8
	c6.7,11.1,15.1,21.9,16.5,34.8c1.5,14.2-6.3,28.4-17.6,37.2c-11,8.6-25.4,12.8-39.3,11.6c-15.2-1.3-29.1-8.7-44.1-11.3
	c-19.6-3.3-40.5,2.2-55.8,14.8c-5.6,4.6-10.6,10.2-17.2,13.5c-10.4,5.2-22.8,3.8-34.3,2.2c-12.9-1.8-26.2-3.7-37.2-10.6
	c-8.2-5.1-14.7-12.8-23.2-17.2c-14.9-7.8-32.9-4.6-49.7-2.5c-16.7,2-35.9,1.8-47.5-10.4c-11.8-12.4-10.7-32.4-5.4-48.7
	c5.3-16.3,14-31.9,15.1-49c0.3-4.1,0-8.4-1.5-12.2c-3.7-9.5-14-14.5-20.2-22.5c-14.3-18.3-1.3-45,18.2-53.4
	C1796.8,974.9,1821.7,982.7,1839.6,992.4z"/>
<path id="blue_x5F_line" class="button-blue path" d="M1947.3,1004c18.1-3.5,33-15.9,48.2-26.4s33.3-19.9,51.4-16.1c15.4,3.2,27.5,15.5,36.1,28.6
	c8.7,13.2,15,27.9,24.8,40.3c9.7,12.3,22.4,22,32.2,34.3c9.7,12.3,16.3,29,10.9,43.7c-5.2,14-19.4,22.1-31.6,30.6
	c-20.9,14.6-38.7,33.8-51.7,55.7c-3.5,6-7.1,12.5-13.3,15.6c-4.2,2.1-9.2,2.3-13.9,2.3c-11.8-0.1-23.6-1.4-35.2-4
	c-35.9-8-71.7-27.8-107.4-19c-13.5,3.3-25.6,10.5-38.4,15.9c-12.8,5.4-27.3,8.8-40.5,4.4c-12.1-4.1-21.1-14.4-27.2-25.6
	c-6.1-11.2-9.9-23.5-15.1-35.1c-5.8-12.9-13.4-24.9-22.5-35.7c-5-5.9-10.5-11.5-13.3-18.7c-4.1-10.6-1.3-22.6,2.7-33.3
	c4.9-13.2,11.8-26.1,22.8-34.9c11.1-8.8,25.6-12.8,35.8-22.6c7.8-7.5,12.4-17.6,18-26.9c5.6-9.3,13.1-18.3,23.6-21.1
	c23.3-6.2,27.4,18.5,41.5,29.1C1902.5,998.3,1925.2,1008.3,1947.3,1004z"/>
<g id="buttonwrap" class="path">
	<rect id="button-shadow" class="buttonshadow" x="1822.1" y="1030.6" width="255.5" height="125.4"/>
	<rect id="button-outline" class="button" x="1814.2" y="1023.1" class="st0" width="255.5" height="125.4"/>
	<text class="buttontext" transform="matrix(1 0 0 1 1860.775 1096.5452)">TIMELINE</text>
</g>
<path id="SHAPE_INSIDE_THE_CAR_ABOVE" class="path st0 svg-elem-1" d="M1553.9,668c-25.6-9.2-54.6-5.2-81.2-8.7c-17.8-2.3-35.2-7.3-53.2-8.6
	c-17.3-1.2-34.8,1.3-51.1,7.2c-9.8,3.5-19.4,8.6-25.7,16.8c-2.3,3-4.1,6.9-3,10.5c0.8,2.4,2.8,4.2,4.8,5.7
	c8.2,5.9,18.4,8.4,28.5,9.9c13.3,2,27.2,2.3,40-1.9c35.7-11.8,47.6-53.3,38.5-86.8c-3-11.2-7.9-21.8-14.1-31.6
	c-73.5-116.7-249.8-113-355.2-49.2c-47,28.4-87.2,68.5-114.7,116.2"></path>
<path id="SHAPE_INSIDE_THE_CAR_BELOW" class="path st0 svg-elem-2" d="M1257.7,849.3c2.6-10.4,4-21.8-0.7-31.8c-3.7-7.8-11.8-13.9-20.4-13.5
	c-5.4,0.3-10.4,3-15.6,4.7c-5.2,1.7-11.4,2.2-15.6-1.3c-4.6-3.9-4.7-10.8-3.8-16.8c1.5-9.7,4.9-19.1,7.5-28.5
	c7.3-26.4,8.1-56.6-7.2-79.3c-17.7-26.3-52.1-35.5-82.2-32c-58.9,6.8-104.2,45.7-154.3,73.2c-3.4,1.8-6.8,3.7-10.6,4.2
	c-13.2,1.9-14.1-11.7-10.3-20.9c6.5-15.9,21.3-27.7,26.1-44.2c1.2-4.1,1.6-9-1.2-12.3c-4.3-5.1-12.6-2.7-18.5,0.4
	c-19.8,10.5-37.4,25.2-51.1,43"></path>
<path id="PATH_LIGHT" class="path st0 svg-elem-3" d="M1832.9,792.3c-7.8-5.5-38.3-20.4-47.1-23.7c-5.4-2-11.6-2.3-17.4-3.7
	c-11.8-2.7-23.1-6.9-34.5-11.1c-12.9-4.7-25.2-10.6-37-17.6c-8.3-4.8-16.2-10.2-23.6-16.4c-14.3-11.9-45.4-26.8-63.4-32.3
	c-0.5-0.1,13.3,0.5,15.4,3.8"></path>
<path id="SHAPE_ABOVE_WHEEL_FRONT" class="path st0 svg-elem-4" d="M1491.1,863.9c0,0,43.7-116.3,157.1-61.7c107.7,51.9,61,42.1,141.1,67.5"></path>
<path id="WHEEL_FRONT" class="path st0 svg-elem-5" d="M1762.4,873.9c-6.6-52.8-45.8-91.3-89.2-90.9c-37.3,0.3-71.6,29.4-84.1,72.3"></path>
<path id="WHEEL_BACK" class="path st0 svg-elem-6" d="M969.8,854.6c12.4-42.9,11.2-90.9,93-90.9c43.4,0,82.6,38.1,89.2,90.9"></path>
<path id="INSIDE_FRONT_WHEEL" d="M1760.7,867.8c-0.2-0.2-0.5-0.6-0.9-0.9c-0.3-0.3-0.7-0.7-1.1-1c-0.8-0.7-1.6-1.3-2.4-2
	c-1.6-1.3-3.3-2.5-5-3.7c-3.4-2.4-6.9-4.7-10.5-6.9c-7.1-4.4-14.4-8.3-21.9-11.8c-3.7-1.7-7.4-3.3-11.2-4.7
	c-3.8-1.4-7.5-2.8-11.3-3.8c-3.7-1.1-7.5-2.1-11.2-2.8c-3.7-0.8-7.4-1.3-11-1.5c-3.6-0.3-7.2-0.1-10.6,0.4s-6.6,1.4-9.7,2.5
	c-3,1-5.9,2.1-8.7,3.1c-2.8,1.1-5.7,2-8.7,3.2s-6,2.5-9.2,4c-3.1,1.6-6.4,3.4-9.8,5.3c-3.3,2-6.9,4.1-10.6,6.4
	c-1.9,1.1-3.7,2.3-5.7,3.5s-3.9,2.5-6.2,3.6h-0.1c-1,0.5-2.3,0.1-2.8-0.9c-0.1-0.3-0.2-0.6-0.2-0.9c-0.2-5.1,0.4-9.9,1.5-14.7
	c0.3-1.2,0.6-2.4,0.9-3.6c0.4-1.2,0.8-2.3,1.2-3.5c0.2-0.6,0.4-1.2,0.6-1.7l0.7-1.7c0.5-1.1,1-2.3,1.5-3.4c2.2-4.5,5-8.7,8.3-12.7
	s7.2-7.6,11.6-10.8c4.3-3.2,9.3-5.8,14.4-7.6c5.2-1.8,10.6-2.8,16-3s10.7,0.1,15.8,0.9c5.1,0.8,10,1.9,14.8,3.1
	c4.8,1.3,9.4,2.8,13.8,4.6s8.7,3.9,12.8,6.1c4.1,2.3,8,4.7,11.8,7.3s7.4,5.3,10.9,8.1c7,5.7,13.5,11.8,19.5,18.3
	c3,3.3,5.9,6.6,8.6,10.1c1.3,1.8,2.7,3.5,3.9,5.4c0.6,0.9,1.2,1.9,1.8,2.9c0.3,0.5,0.6,1,0.8,1.5c0.3,0.5,0.5,1.1,0.8,1.8
	c0.3,0.9-0.1,1.9-1.1,2.3c-0.7,0.2-1.4,0.1-1.9-0.4L1760.7,867.8z" class="path fill svg-elem-7"></path>
<path id="INSIDE_BACK_WHEEL" d="M1146.6,858.7c-0.5-0.4-1.1-0.9-1.5-1.3c-0.4-0.4-0.9-0.8-1.3-1.3l-2.4-2.5
	c-1.6-1.7-3.2-3.2-4.7-4.8c-3.2-3.1-6.4-6-9.9-8.6c-1.7-1.3-3.5-2.5-5.2-3.6c-0.9-0.6-1.8-1.1-2.7-1.6c-0.4-0.3-0.9-0.5-1.3-0.8
	l-1.4-0.7c-3.6-2-7.4-3.5-11.2-4.8c-15.4-4.9-31.5-4.2-47.3-0.8c-7.9,1.9-15.6,5.2-23,8.8l-1.4,0.6l-1.4,0.7
	c-0.9,0.4-1.9,0.9-2.8,1.3c-1.9,0.9-3.8,1.6-5.7,2.3c-1.9,0.8-3.9,1.5-5.9,2.2s-4,1.2-6,1.9c-8.2,2.5-16.6,4.8-25.4,6.8
	c-4.4,1.1-9,1.8-13.7,2.7c-2.4,0.4-4.7,0.8-7.2,1c-2.5,0.3-5,0.5-7.6,0.5h-0.1c-1.2,0-2.1-0.9-2.1-2.1c0-0.3,0.1-0.7,0.2-1
	c1.2-2.3,2.6-4.5,4-6.6s2.9-4.1,4.4-6.1s3.1-3.8,4.8-5.6c1.6-1.8,3.3-3.5,5.1-5.2c7-6.7,14.7-12.5,23.1-17.4
	c2.1-1.3,4.2-2.4,6.4-3.4s4.4-2,6.7-2.9s4.7-1.5,7-2.2c2.4-0.6,4.7-1.3,7.2-1.7l7.4-1.2l1.8-0.3l1.9-0.2l3.7-0.4
	c4.9-0.6,10-0.8,15-1.2l7.6-0.2c1.2-0.1,2.5,0,3.8,0.1l3.8,0.2c2.5,0,5.1,0.4,7.6,0.7c1.3,0.2,2.5,0.3,3.8,0.5l3.8,0.7
	c1.3,0.3,2.5,0.5,3.8,0.8l3.7,1.1c1.2,0.4,2.5,0.7,3.7,1.1l3.6,1.3c2.4,0.8,4.7,2,7,3.1c1.2,0.5,2.3,1.2,3.4,1.8l3.3,1.9
	c8.6,5.4,16.2,12.1,22.1,19.9c3,3.8,5.6,7.8,7.9,11.9c1.1,2,2.2,4.1,3.3,6.1l1.6,3c0.3,0.5,0.5,0.9,0.8,1.4c0.1,0.3,0.3,0.4,0.4,0.6
	l0.4,0.6l0.2,0.4c0.5,0.8,0.3,1.9-0.6,2.4C1148,859.2,1147.1,859.1,1146.6,858.7z" class="path fill svg-elem-8"></path>
<path id="SHADOW_FRONT_WHEEL" d="M1579.4,927.3c7.9-1.8,15.8-2.4,23.5-2.7c7.8-0.2,15.5,0,23.3,0.7c7.7,0.6,15.4,1.7,23,3.2
	c7.6,1.6,15.3,3.5,22.8,6.7c-7.9,1.9-15.8,2.5-23.5,2.8c-7.8,0.2-15.5,0-23.3-0.7c-7.7-0.7-15.4-1.7-23-3.2
	C1594.6,932.3,1587,930.4,1579.4,927.3z" class="path fill svg-elem-9"></path>
<path id="PLUG_02" class="path st1 svg-elem-10" d="M416.5,441.3c0,0,42.9-38.5,54-12.1c11.1,26.4-31.1,45.8-31.1,45.8"></path>
<line id="PLUG_01" class="path st1 svg-elem-11" x1="436.3" y1="427" x2="460.2" y2="461"></line>
<path id="CORD" class="path st1 svg-elem-12" d="M475,424.1c34.6-26.1,60.5-30.3,94.4-44.8c180.1-76.7,316,130.4,103,197l-3.5,4
	c-49.7,11.7-102.1,31.6-127.5,79l2,5.5c30.4,19.2,65.7,23.3,99,33.5l8.5-4.5c101.8-263.1-189.7-251-146.5-79
	c3.6,22.3,39.4,40.9,37,52.5c-33.4,66,80.8,98.2,100.6,32.5c36.1,0.3,72.2-0.8,108.2-3.8c38-3.2,75.6-8.8,113-16.4
	c6.6-1.3,34.4-11.3,40.1-4"></path>
<path id="outline" class="st1" d="M903.3,675.6c5.8,7.4-11.6,31.3-14.7,37.2c-21.5,40.1-39.7,82.1-58.9,123.4
	c-1.6,3.4-3.5,6.8-4.6,10.2c41,11.6,88.1,2.1,130.3,4.9c23.3,1.5,20.4,10.7,30.9,28.9c4.6,8,22.5,38.6,33,38.9
	c-19.8-0.6-39.6-1.2-59.4-1.8c22.8,0.4,45.3,4.3,68,6.4c22.7,2,46.1,2,67.7-5.2s41.4-22.6,49.4-43.9c2.2-6,3.7-12.5,7.9-17.2
	c12.3-13.6,48.6-9.1,65.2-8.6c29.9,0.9,59.7,4.7,89.5,7.2c80.2,6.8,159.5,11.8,239.9,4.7c14.7-1.3,39.6-10.6,43.5,3.7
	c8.6,31.4,17.1,55.1,62.1,63.9c63.9,12.4,107.3-36.4,108.7-48.4c1.7-15.2,30.1-8.7,47.3-10.2c33.1-2.8,102.1,0,55.6-46.9
	c-39.2-40.4-83.2-76.3-134.6-99.9c-60.4-33.9-132.8-33.3-194.5-63.5c-63.6-37-79.7-118.3-140.7-158.8
	c-183-122.7-385.8,18-490.5,174.2"/>
</svg>



