<?xml version="1.0" encoding="utf-8"?>
<svg version="1.1" xmlns="http://www.w3.org/2000/svg" xmlns:xlink="http://www.w3.org/1999/xlink" x="0px" y="0px" viewBox="0 0 595.3 841.9" style="enable-background:new 0 0 595.3 841.9;" xml:space="preserve" width="595.2999877929688" height="841.9000244140625">
<style type="text/css">
	.st0{display:none;}
	.st1{display:inline;opacity:0.25;}
	.st2{fill:none;stroke:#864393;stroke-miterlimit:10;}
</style>
<g id="Layer_2">
	<path id="outline" class="st2 svg-elem-1" d="M212.9,178.2c0,0-6,52.2,4.5,70.9c0,0-19.4,53.4-7.5,74.7c12,21.3,35.9,53.4,68.7,54.8
		s96.4-17.7,98.2-73.2c0,0-1.1-23.9-4.9-37.2s16.4-85,11.7-89.9c-4.7-4.9-54.3,38.5-54.3,38.5l-65.6,2.2
		C263.8,219,231,174.8,212.9,178.2z"></path>
	<path class="path st2 svg-elem-2" d="M248,280.4c0,0-3.8,14.9,4.2,19.3c8,4.4,21.3,2,23.3-2.2c2-4.2,3.5-13.3-5.5-19.2
		C260.9,272.4,248,280.4,248,280.4z"></path>
	<path class="path st2 svg-elem-3" d="M316.3,292.1c0,0,8.4,10.9,19.5,6c11.1-4.9,10.2-11.3,8.9-15.1s-5.7-8.3-13.8-6.9c-8.1,1.4-11.7,7.4-12.6,9.6
		C317.4,287.9,316.3,292.1,316.3,292.1z"></path>
	<polygon class="path st2 svg-elem-4" points="283.3,323.8 311,323.8 297.6,339.1 	"></polygon>
	<path class="path st2 svg-elem-5" d="M281.1,351.8c0,0,11.7-7.8,32.4-1.1"></path>
	<line class="path st2 svg-elem-6" x1="297.6" y1="339.1" x2="297.3" y2="348"></line>
	<path class="path st2 svg-elem-7" d="M256.9,334c-0.7,0-52.1,11.5-72.1,35.7"></path>
	<path class="path st2 svg-elem-8" d="M256.9,339.8c0,0-49.9,19.1-66.3,33.9"></path>
	<path class="path st2 svg-elem-9" d="M254.7,349.9c-19.3,11.9-59.2,35.6-67.4,49.8"></path>
	<path class="path st2 svg-elem-10" d="M323.9,334c18.2,0.9,80.9,7.8,91.6,25.7"></path>
	<path class="path st2 svg-elem-11" d="M323.9,339.8c0,0,75.8,11.1,81.4,20"></path>
	<path class="path st2 svg-elem-12" d="M327.9,328.7c0,0,59.4,0.9,77.4,12.4"></path>
</g>
</svg>
