<!--?xml version="1.0" encoding="utf-8"?-->
<!-- Generator: Adobe Illustrator 24.1.0, SVG Export Plug-In . SVG Version: 6.00 Build 0)  -->
<svg version="1.1" id="cityscape" class="cityscape" xmlns="http://www.w3.org/2000/svg" xmlns:xlink="http://www.w3.org/1999/xlink" x="0px" y="0px" viewBox="0 0 2267.7 1275.6" style="enable-background:new 0 0 2267.7 1275.6;" xml:space="preserve" width="2267.699951171875" height="1275.5999755859375">
<style type="text/css">
	.st0{fill:none;stroke:#FCFF12;stroke-width:14;stroke-linecap:round;stroke-linejoin:round;stroke-miterlimit:10;}
	.st1{fill:none;stroke:#2F1EFF;stroke-width:7;stroke-linecap:round;stroke-linejoin:round;stroke-miterlimit:10;}
	.st2{fill:none;stroke:#000000;stroke-width:8;stroke-linecap:round;stroke-linejoin:round;stroke-miterlimit:10;}
	.st3{fill:none;stroke:#000000;stroke-width:7;stroke-linecap:round;stroke-linejoin:round;stroke-miterlimit:10;}
</style>
<path id="yellow-line" class="st0" d="M69.9,873.1c33.4-1,77.9,2.8,98.8,31.7c0.3,0.5,0.8,0.9,1.3,1.4l0,0c1,0.8,1.9,2,2.3,3.3
	c9.3,29.6-13.1,63.2-40.4,75.8c-4.5,2.1-9.5,3-14.4,2.2c-28.5-4.4,3.8-49.4,18.7-60.8c25.3-22.3,60-30,92.4-35.3
	c46-5.9,92.7-5.6,139-2.7c28.8,1.9,53.9-19.1,57.5-47.7c5.5-44.3,1.3-101,66.1-115.4c37.7,2.7,42.8-72.1,70-64.3
	c3.8,1,6.9,4,8.5,7.4c8.3,17.4,22,27.4,42.3,28.1c61.5,12.6,38.2,8.1,70.9-25.1c2.4-2.6,5.8-4.2,9.3-4.8c46.8-7,53.3-37.3,75.7-71
	c31.8-19.1,43.2,12.1,68.6,19.1c70.9,15.7,94.6-29.1,94.7-92.9c-1.4-47.4,51.8-61.6,67.4-100c17.1-60.3,17.5-124.2,22.9-185.5l0,0
	l4.3,42.4l0,0c14.9,20.6,7.8,51.5,23.9,72.3c1.2,1.5,2.4,2.8,3.7,4.2c18.6,18.9,21.7,42.5,22.2,67.2c0.2,13.5,4.1,26.7,11.4,38.1
	c34.9,54.9,44.9,32.1,48.7,141.3c3.6,19.4-2.2,44.7,11.6,60.3c36,46.7,24.8,117.4,40.1,173.3c6.5,24.5,57.2,75.4,58,23.2
	c14.8-46.6,52.6-80.4,47.8-134.8c91.9-229.5,161,35.7,188.5-151.6c1.3-9.1,12-13.2,19.1-7.7l0,0c2.7,2.1,4.4,5.2,4.5,8.7
	c5.8,109.6,189.9,28.6,208.6,142.8c48.7,132.3-14.2,161.6,163.8,185.4l125.5,35c-36.1-120.5,161.4-109,7-0.6l1.7,3.5
	c77.6,20.7,155.4-55.1,225.5-83.7"/>
<path id="blue_right_bottom" class="st1" d="M291.9,848.1c-18.5-0.9-37.7-0.7-55.8-4.1"/>
<path id="blue_left_bottom" class="st1" d="M2217.7,949.8c-16.5,8.7-33.1,20.3-52.3,22.1"/>
<path id="blue_bottom" class="st1" d="M1715.6,975.3c-76.2,0.6-152.6,0.3-229,0"/>
<path id="blue_top_left" class="st1" d="M733.5,478.3c10.3,9.4,18.6,21.7,29.1,30.6"/>
<path id="blue_left_down_bottom" class="st1" d="M80,907.4c3.3,12.6-2.1,22.8-8.4,33.1"/>
<path id="blue_right_top" class="st1" d="M1838.2,749.9c2.4,13.5,1.4,27.3,4.1,40.7"/>
<path id="blue_top_top" class="st1" d="M1039.8,259.4c0.6,10.5,1.2,20.9,1.7,31.4"/>
<path id="blue_top_right" class="st1" d="M1533.1,534.3c3.4-0.3,6.2,1.6,9.3,2.3"/>
<path id="building_right" class="path st3 svg-elem-1" d="M1934.1,934.3c0,45.3,0-47.9,0-56l0.3-16.9c-0.2-11.9,0-23.6-0.1-35.4
	c-0.3-18,0.2-36,0.5-54c0.1-8.7-0.8-8.4-9.3-8.9c-12.7-0.8-25.2,0.5-37.8,0.1c-6-0.2-12.3-1.5-18.6-0.1c-4.6,1-6.4,2.7-6.4,7.2
	c0.1,17.8-0.1,35.7,0.1,53.5c0.2,14.8,0.3,29.5,0.1,44.2c-0.2,14.8,1.4,36.4-0.2,51.1"></path>
<path id="building_middle" class="path st3 svg-elem-2" d="M1117.1,571.5c27.5,0,46.3,0,73.8,0c6.2,0,7,0.8,7,7c0,30.8,0,61.6,0,92.4
	c0,41.8,0.2,83.7-0.1,125.5c-0.1,13.4,0,26.7-0.1,40.1c0,8.5-0.3,70.4,0.2,78.9"></path>
<path id="building_left_middle_02" class="path st3 svg-elem-3" d="M950.3,626.3c-11.9,1.2-23.6,0.2-35.4,0.2c-25.6,0.1-51.1,0-76.7,0
	c-11,0-11,0-11,11c0,28.1,0.1,78.2-0.1,106.3"></path>
<path id="building_left_middle" class="path st3 svg-elem-4" d="M720.2,644.5c0-5.2,0.6-18.9,0.6-24.2c0-16.5,0-32.9,0-49.4c0-19.2,0-38.4,0-57.5
	l4.5-7.8c5.3,2.8,10.1,7.2,14.6,11.4c14.6,13.2,29.1,26.7,43.6,40.1c8,7.3,15.8,14.8,23.8,22.1c1.3,1.2,0.1,64.2,0.6,65.7"></path>
<path id="background_right_middle" class="path st3 svg-elem-5" d="M1398.3,596.5c1.4-8.7,0.3-17.4,0.8-26.2l2.1-20c7.7-1.9,15.6-1.3,23.2-0.6
	c8,0.7,15.9-0.3,23.8,0.1c9.1,0.6,18.1-0.1,27.3,0.1c11.4,0.3,22.9-0.3,34.3-0.5c8.1-0.1,8.4,0.2,8.7,8.1
	c0.9,18.6-0.2,37.2,0.3,55.8l-0.5,46.5c2,13.5-0.2,27.1,0.3,40.7c0.8,18.4-0.3,36.8-0.2,55.2c0.1,12-0.2,24.1,0.3,36
	c0.6,12.3-0.3,24.8-0.3,37.2c-0.1,15.7,0,41.3,0,57"></path>
<path id="background_right_buildings" class="path st3 svg-elem-6" d="M1518.7,651.7c7,0,69.6,0,76.6,0c7.6,0,15.1-0.6,22.7,0.6l2,7
	c-0.5,11-0.2,22.1-0.2,33.1l1.7,8.7c15.3,1.2,30.6,0.2,45.9,0.6c5.8,0.1,11.6-0.8,17.4,0.6l2.3,56.4c1.4,0.3,2.8,1.3,4.1,1
	c7.1-1.3,10.3,3.4,13.4,8.3c4.3,7,9.2,13.6,14.6,19.8c2.1,2.3,3,5,2.9,8.1c-0.2,15.9-0.8,31.7-0.5,47.7c0.2,9.3,0.1,18.6,0.1,27.9"></path>
<path id="line_-_background" class="path st3 svg-elem-7" d="M1278.7,716c-8.4,0.1-70.8,0.1-79.1,0.1"></path>
<path id="background_letft_building" class="path st3 svg-elem-8" d="M656.8,722.2c-8.1,0.3-25-1.2-33.1-0.8l-1.7,12.8c0,25.2,0,50.3,0,75.5
	c0,18.4-0.1,36.8,0.1,55.2c0,4.3-0.9,6.7-5.9,6.5c-5.6-0.2-6.4-0.7-6.4-6.5c0-19.2,0-38.4,0-57.5c0-7.3-0.5-14.8-0.5-22.1l-0.1-11
	c0-15.3-0.1-30.6,0.1-45.9c0.1-5.5-1.2-7-6.5-7.7c-11.4-1.5-22.9,1.3-34.3-0.5c-4.9-0.7-6.9-2.9-6.4-7.6c1.3-11.4,0.1-22.9,0.6-34.3
	c0.1-3-1.3-4.5-4.1-4.6c-3.7-0.1-7.3-0.1-11,0c-3.7,0.1-5.9,2.9-5.6,5.8c0.8,8.8-0.1,17.7-0.2,26.8c-2,2.2-5,3-8.7,2.9
	c-9.5-0.5-18.9,0.6-28.5-0.6c-1.2-0.1-2.9-0.1-3.4,0.6c-6.3,8.9-17,12.2-24.6,19.5c-2.8,2.7-5.2,4.9-4.4,8.8
	c1.2,5.8-0.5,11.6,0,17.4c0.5,4.9-2.1,5.5-5.9,5.3c-5-0.1-10.1-0.5-15.1,0.6l-1.6,11c0.3,14.3,0.1,28.7,0.2,43
	c0,11.6,0.1,23.2-0.1,34.9c-0.2,9.6,0.3,19.4,0.5,29.1c0.1,10.1-0.8,20.1,0,30.2"></path>
<polyline id="highestbuilding" class="path st3 svg-elem-9" points="950.3,638.1 950.3,413.6 994.7,413.6 994.7,377.7 1022.1,377.7 1022.1,244.1 
	1032,357.4 1046.7,357.4 1046.7,396 1076.3,396 1076.3,415.7 1117.1,415.7 1117.1,609.2 "></polyline>
<path id="outline" class="st2" d="M2187.5,923c-2,0.1-3.8,0.1-5.8,1c-21.6,10.6-43.8,20.1-66.8,27.2c-14.6,4.5-29.6,8.5-45.2,9.2
	c-11.3,0.5-21.9-0.2-32-5.5c-8.6-4.4-12.6-12.8-17.4-20.3c2.2-6.5-2.2-12-2.8-18c-0.9-10.1,0.9-19.9,5.6-29.1
	c2.4-4.8,6.2-7.9,10.6-10.3c5.1-2.8,10.6,0.8,11.6,6.9c1.7,10-2.2,18.6-7.2,26.6c-3.8,6.3-7.1,13.6-15,16.4c-0.3,0.1-0.8,0-1.2,0
	l-13.5,10.7c-8.5,6.7-19.1,10.3-29.9,10c-0.1,0-0.1,0-0.2,0c-11.3-0.3-22.4-0.2-33.7,0c-17.4,0.3-34.9-0.2-52.3-0.5
	c-4,0-5.9-2.6-6.3-5.8c-0.3-3-0.2-6.2,0.3-9.3c0.9-5.5-1.7-8.1-7.4-8.1c-13.4,0.1-26.7-1.5-40.1,0.1c-5,0.6-8.8-1.6-11.5-4.9
	c-5.8-7.1-13-12.6-19.9-18.5l-8.3,5.9c-8.6,8.9-14.6,21.7-30.1,20.8c-8.5-0.5-17.1,0.2-25.6-0.5c-4.1-0.3-5.3-2.7-5.8-5.9
	c-1.5-11.6-0.1-23.2,0.1-34.9c0.1-6.3-2-9.3-8.3-9.3c-12.4,0-24.8,0-37.2,0c-16.6,0-33.4,0-50,0l-2.3,33.1c0.1,4.2-2.1,5.2-5.8,5.2
	c-10.8,0.1-21.7,0.6-32.5,0.5c-5-0.1-5.6,2.2-6,6.5c-0.6,5.8,0.3,11.7-0.9,17.4l-20.9,0.8c-4.8-0.1-9.6-0.7-14.5-0.2
	c-12,1-23.9,0.9-35.9,0c-2.7-0.2-4.9-2.6-4.8-5.2c0-6.6,0.1-13.1,0-19.8l-1.7-29.6c-4.1-0.2-8.1-0.5-12.2-0.6
	c-6.4-0.2-6.4-0.2-6.4-6.4c0-12,0-24.1,0-36c0-2.9,0.1-6.6-3.5-6.9l-20.3-0.7c-5.5,0.1-5.9-3.4-5.8-7.7c0.1-28.2,0-56.6,0-84.8
	c0-25.9-0.2-52,0.2-77.9c0.1-5.8-3.6-9.1-8.9-8.7c-4.4,0.2-8.9,0.7-13.4,0.5c-6.7-0.3-10,0-9.9-9.8c0.1-12.6,0-25.2,0-37.8
	c0-4.9-3.1-8.5-7.6-8.1l-49.4,0.5c-11,0-22.1,0-33.1,0c-9.1,0-18.2,0.2-27.3-0.5c-6.4-0.5-9.8,3.1-9.9,9.8
	c-0.1,11.4,1,22.9,0.1,34.3l-1.5,7.6c-6.7,1.3-13.5,0.3-20.2,0.6c-3.7,0.1-6.7,3.3-6.7,7c0,47.4,0,95,0,142.4c0,2,0,3.8-0.3,5.8
	c-0.8,3.8-2.6,5.5-6.5,5.2c-6.2-0.2-12.4-0.1-18.6-0.1c-6.3,0-7.6,1.3-7.6,7.6c0,29.4-0.1,58.9,0.1,88.3c0,6-1.2,8.1-8.3,8.1
	c-10.5,0-20.9-0.5-31.4,0.1c-5.5,0.3-10.6-2.8-16.4-0.3c-2.9,1.3-6.9-5-6.9-9.6c0-19.5,0-39.2,0-58.7c0-1.5-0.3-3.1-0.6-4.6
	l-13.6-13.5c1.3-8.8,0.1-17.8,0.6-26.7c0.5-8.5-1.4-17.1,0-25.6c0.7-4.2-1.4-5.9-5.8-6.5l-13.4,0.7c-1.9-5.9-0.8-11.7-1.2-17.5
	c-0.7-13.6,1.2-27.2-1.2-40.7l-11.6-2c-2.2,0.2-4.6-0.6-4.6-3.8c-0.1-5.2-0.3-10.5-0.6-15.7l0.5-23.2c-0.6-13.1-0.3-26.4-0.3-39.5
	l-1.9-20.2c-4.3-0.2-8.5-0.5-12.8-0.6c-3.6-0.1-6.4,1.3-7,5.2c-1.2,7.1-0.5,14.3-0.6,21.5l-19.8,20.9c-8.1,7.2-15.3,15.3-23.2,22.7
	c-3.5,3.3-0.9,7.8-2.2,11.6l-12.9,20.9c-6.9,0-9.3,2.3-9.3,9.3c0,17.4,0,34.9,0,52.3c0,2.7,0.3,5.5-1.6,7.9c-1.6,2-4.1,3.1-6.6,3.1
	c-1.9,0-3.7,0-5.6,0c-6.3,0.1-9.5,3.1-9.9,9.3c-0.9,21.2-0.9,42.2-0.1,63.3c0.1,2.9-0.6,5.8-0.5,8.7c0.1,11.3,0.3,22.4,0.6,33.7
	c0,1.5,0,4.1-0.2,5.6c-1,12.7-0.9,12.8-14.9,13c-4.5,0.1-8.9-0.5-13.5-0.5c-5.1-0.1-9.2-4.2-9.2-9.3c0-15.1,0-30.2,0-45.3l-0.1-11
	c0.1-5.2,0-10.5,0-15.7c0-18,0-36,0-54c0-43,0-86,0-129c0-7.4-2-9.3-9.5-8.3c-1.3,0.1-3.3,0.2-4.4,0.1c-8.9-0.9-17.8-0.5-26.7-0.6
	c-5.9-0.1-10.7,1.3-14.1,6.9c-2.9,5-6.9,9.4-10.3,13.9c-11.6,15.2-23.5,30.3-35.4,45.3c-1.6,2-4.6,3.8-6.9,3.4c-4.2-1-8.3,0-12.3,0
	c-6.7,0-13.7-1.9-20.9,0.8c0,7.1-0.3,14.3,0.1,21.4c0.2,4.6-2,6.5-5.9,7c-7.2,0.7-14.3,1-21.5,0l-2.3-11.6c0-7.8,0-15.5,0-23.2
	l-4.1-63.9c-4.4,0-7.8,0.6-11.6,0.6c-25.3-0.3-50.8,0.1-76.1-0.8c-9.8-0.3-19.8,0.6-29.6,0.2c-5.3-0.2-7.4,2.1-7.6,7.6
	c-0.1,7.9,0,15.9,0,23.8c0,6.5-1.5,7.9-8.1,8.1c-5.5,0.2-9.9,1.2-16.3,1.2l-1.7,33.1c0,8.4,0,16.6,0,25v8.1c0,17.4,0.1,34.9,0,52.3
	c-0.1,15.7-0.3,31.4-0.6,47.1c-0.1,11.6,1.3,23.2,0,34.9c-0.3,2.8,0.3,5.6-1.2,8.1l1.7,2c-11.6-0.1-19.2-0.7-30.8-0.8
	c-2.3,0-4.6,0-7,0c-4.8,0-6.7,2-7,7c0,0.8,0,1.5,0,2.3c-0.1,10.1-0.9,10.9-11,11l-4.1,0.6c-4.4,0.1-8.9,0-13.4,0
	c-20.9,0-41.8,0.1-62.8,0c-26.2-0.1-52.3,0.6-78.5-0.5l-10.2-5.2c1-5.3-0.8-10.5-0.2-15.7l-13.9-2.6c-12.8,0.7-25.6-0.2-38.4,0.5
	c-4.5,0.2-8.9-0.3-13.4-0.3c-25.2,0.5-50.3,1-75.5,1.2c-18.2,0.1-36.4-0.1-54.6-0.2c-9.6,0-19.4-1.2-29.1,0.2
	c-3.7,0.6-7.1,1.7-10.5,3l-4.1-2.3c-8.6,4.8-18.6,5.8-27.3,10.3c-18.7,9.9-32.7,23.9-40.6,43.7c-2.1,5.2-2.4,11.2-1.7,16.9
	c0.7,5.2,4.1,8.8,8.8,10.3c2.2,0.7,4.5,0.8,6.7,0.5l11.3-1.6c1-0.1,2.1-0.3,3.1-0.7c7.6-2.7,14.1-6.9,20.3-11.5
	c18.4-13.2,34.8-42.3,19.5-69.9c-7.2-13.2-16.5-23.1-29.3-30c-21.7-11.7-45.7-17.2-69.7-21.4c-12.6-2.2-25.1-4.1-37.8-5.8
	c-8.4-1.2-17-2.9-25.6-2"/>
</svg>
