<?xml version="1.0" encoding="utf-8"?>
<!-- Generator: Adobe Illustrator 24.1.0, SVG Export Plug-In . SVG Version: 6.00 Build 0)  -->
<svg version="1.1" id="cityscape" xmlns="http://www.w3.org/2000/svg" xmlns:xlink="http://www.w3.org/1999/xlink" x="0px" y="0px"
	 viewBox="0 0 2267.7 1275.6" style="enable-background:new 0 0 2267.7 1275.6;" xml:space="preserve">
<style type="text/css">
	.st0{fill:#FFFFFF;stroke:#000000;stroke-miterlimit:10;}
	.st1{font-family:'ArialMT';}
	.st2{font-size:37.406px;}
	.st3{fill:none;stroke:#0800E9;stroke-width:6;stroke-miterlimit:10;}
</style>
<rect id="button-shadow" x="1666.5" y="1071.8" width="255.5" height="125.4"/>
<rect id="button-outline" x="1658.6" y="1064.3" class="st0" width="255.5" height="125.4"/>
<text transform="matrix(1 0 0 1 1705.1604 1137.7694)" class="st1 st2">TIMELINE</text>
<path id="yellow_x5F_line" class="st3" d="M1684,1033.6c9.5,5.1,20.2,9.9,30.9,7.8c7.3-1.4,13.6-5.9,19.8-10
	c13-8.8,26.7-16.9,41.8-20.8s32-3.2,45.4,4.8c12.2,7.3,20.6,20,33.4,26.2c31.3,15.1,69.9-15.9,102.2-3c13.1,5.2,23,17.7,25.1,31.6
	c0.6,4.1,0.6,8.3-0.7,12.2c-4,12.2-18.5,18-24,29.6c-5.6,11.7-0.4,25.6,6.2,36.8c6.7,11.1,15.1,21.9,16.5,34.8
	c1.5,14.2-6.3,28.4-17.6,37.2c-11,8.6-25.4,12.8-39.3,11.6c-15.2-1.3-29.1-8.7-44.1-11.3c-19.6-3.3-40.5,2.2-55.8,14.8
	c-5.6,4.6-10.6,10.2-17.2,13.5c-10.4,5.2-22.8,3.8-34.3,2.2c-12.9-1.8-26.2-3.7-37.2-10.6c-8.2-5.1-14.7-12.8-23.2-17.2
	c-14.9-7.8-32.9-4.6-49.7-2.5c-16.7,2-35.9,1.8-47.5-10.4c-11.8-12.4-10.7-32.4-5.4-48.7c5.3-16.3,14-31.9,15.1-49
	c0.3-4.1,0-8.4-1.5-12.2c-3.7-9.5-14-14.5-20.2-22.5c-14.3-18.3-1.3-45,18.2-53.4C1641.2,1016.1,1666.1,1024,1684,1033.6z"/>
<path id="blue_x5F_line" class="st3" d="M1791.7,1045.3c18.1-3.5,33-15.9,48.2-26.4c15.2-10.5,33.3-19.9,51.4-16.1
	c15.4,3.2,27.5,15.5,36.1,28.6c8.7,13.2,15,27.9,24.8,40.3c9.7,12.3,22.4,22,32.2,34.3c9.7,12.3,16.3,29,10.9,43.7
	c-5.2,14-19.4,22.1-31.6,30.6c-20.9,14.6-38.7,33.8-51.7,55.7c-3.5,6-7.1,12.5-13.3,15.6c-4.2,2.1-9.2,2.3-13.9,2.3
	c-11.8-0.1-23.6-1.4-35.2-4c-35.9-8-71.7-27.8-107.4-19c-13.5,3.3-25.6,10.5-38.4,15.9c-12.8,5.4-27.3,8.8-40.5,4.4
	c-12.1-4.1-21.1-14.4-27.2-25.6c-6.1-11.2-9.9-23.5-15.1-35.1c-5.8-12.9-13.4-24.9-22.5-35.7c-5-5.9-10.5-11.5-13.3-18.7
	c-4.1-10.6-1.3-22.6,2.7-33.3c4.9-13.2,11.8-26.1,22.8-34.9c11.1-8.8,25.6-12.8,35.8-22.6c7.8-7.5,12.4-17.6,18-26.9
	c5.6-9.3,13.1-18.3,23.6-21.1c23.3-6.2,27.4,18.5,41.5,29.1C1746.9,1039.5,1769.6,1049.6,1791.7,1045.3z"/>
</svg>
