<?xml version="1.0" encoding="utf-8"?>
<!-- Generator: Adobe Illustrator 24.1.0, SVG Export Plug-In . SVG Version: 6.00 Build 0)  -->
<svg version="1.1" id="frontpage" xmlns="http://www.w3.org/2000/svg" xmlns:xlink="http://www.w3.org/1999/xlink" x="0px" y="0px"
	 viewBox="0 0 2267.7 1275.6" style="enable-background:new 0 0 2267.7 1275.6;" xml:space="preserve">
<style type="text/css">
	.st0{fill:#FFFFFF;stroke:#000000;stroke-miterlimit:10;}
	.st1{font-family:'ArialMT';}
	.st2{font-size:55.226px;}
	.st3{fill:none;stroke:#0800E9;stroke-width:6;stroke-miterlimit:10;}
	.st4{font-family:'MyriadPro-Regular';}
	.st5{font-size:75px;}
</style>
<path id="yellow_x5F_line" class="button-yellow" d="M863.6,464.6c24.7,13.3,52.5,25.7,80.4,20.3c19-3.6,35.4-15.3,51.5-26
	c33.8-22.9,69.4-44,108.7-54.1c39.3-10.1,83.2-8.3,118.1,12.5c31.7,19,53.6,52,86.9,68.1c81.4,39.3,181.8-41.4,265.8-7.8
	c34.1,13.5,59.8,46,65.3,82.2c1.6,10.7,1.6,21.6-1.8,31.7c-10.4,31.7-48.1,46.8-62.4,77c-14.6,30.4-1,66.6,16.1,95.7
	c17.4,28.9,39.3,57,42.9,90.5c3.9,36.9-16.4,73.9-45.8,96.7c-28.6,22.4-66.1,33.3-102.2,30.2c-39.5-3.4-75.7-22.6-114.7-29.4
	c-51-8.6-105.3,5.7-145.1,38.5c-14.6,12-27.6,26.5-44.7,35.1c-27,13.5-59.3,9.9-89.2,5.7c-33.5-4.7-68.1-9.6-96.7-27.6
	c-21.3-13.3-38.2-33.3-60.3-44.7c-38.8-20.3-85.6-12-129.3-6.5c-43.4,5.2-93.4,4.7-123.5-27c-30.7-32.2-27.8-84.3-14-126.7
	c13.8-42.4,36.4-83,39.3-127.4c0.8-10.7,0-21.8-3.9-31.7c-9.6-24.7-36.4-37.7-52.5-58.5c-37.2-47.6-3.4-117,47.3-138.9
	C752.3,419.1,817,439.7,863.6,464.6z"/>
<path id="blue_x5F_line" class="button-blue" d="M1132,495.1c47.1-9.1,85.8-41.4,125.4-68.7c39.5-27.3,86.6-51.8,133.7-41.9
	c40.1,8.3,71.5,40.3,93.9,74.4c22.6,34.3,39,72.6,64.5,104.8c25.2,32,58.3,57.2,83.7,89.2c25.2,32,42.4,75.4,28.3,113.7
	c-13.5,36.4-50.5,57.5-82.2,79.6c-54.4,38-100.6,87.9-134.5,144.9c-9.1,15.6-18.5,32.5-34.6,40.6c-10.9,5.5-23.9,6-36.2,6
	c-30.7-0.3-61.4-3.6-91.5-10.4c-93.4-20.8-186.5-72.3-279.3-49.4c-35.1,8.6-66.6,27.3-99.9,41.4c-33.3,14-71,22.9-105.3,11.4
	c-31.5-10.7-54.9-37.5-70.7-66.6c-15.9-29.1-25.7-61.1-39.3-91.3c-15.1-33.5-34.9-64.8-58.5-92.8c-13-15.3-27.3-29.9-34.6-48.6
	c-10.7-27.6-3.4-58.8,7-86.6c12.7-34.3,30.7-67.9,59.3-90.8c28.9-22.9,66.6-33.3,93.1-58.8c20.3-19.5,32.2-45.8,46.8-70
	c14.6-24.2,34.1-47.6,61.4-54.9c60.6-16.1,71.3,48.1,107.9,75.7C1015.5,480,1074.5,506.2,1132,495.1z"/>
<g id="buttonwrap">
	<rect id="button-shadow" class="buttonshadow" x="951.2" y="621.1" width="377.2" height="185.1"/>
	<rect id="button-outline" class="button" x="939.5" y="610.1" class="st0" width="377.2" height="185.1"/>
	<text class="buttontext" transform="matrix(1 0 0 1 1037.5238 718.5203)" class="st1 st2">START</text>
</g>
<text transform="matrix(1.0095 0 0 1 589.7231 151.2955)" class="st4 st5">ELECTRICITY THORUGH THE TIMES</text>
</svg>
