<?xml version="1.0" encoding="utf-8"?>
<!-- Generator: Adobe Illustrator 24.0.3, SVG Export Plug-In . SVG Version: 6.00 Build 0)  -->
<svg version="1.1" xmlns="http://www.w3.org/2000/svg" xmlns:xlink="http://www.w3.org/1999/xlink" x="0px" y="0px"
	 viewBox="0 0 523.3 727.4" style="enable-background:new 0 0 523.3 727.4;" xml:space="preserve">
<style type="text/css">
	.st0{fill:#FFFFFF;}
</style>
<g id="Fill_1_">
	<path class="st0" d="M282.3,484.8c-65.9,8.3-104.3-53.3-127.8-105.6c-21.2-41.4,10-52.8,42.2-68c8-5.2,26.1-7.9,26.5-19.1
		c-9.5-8.5-45.9,14-59.4,12.5c0-6.2,0-11.8,0-16.8c14.8,4.4,31,10,44-1.7c2.7-2.1,11.1-2.1,7.6-7.1c-3.4-4.5-0.7-7.9,1.2-11.3
		c5.9-14.3-22.5-14.9-31.4-16.7c-3-0.5-6.1-3.9-8.7,0.6c-4.5,0.6-9.3-1.1-14.5-1.4c17.6-61.4-37-85.2,32.4-122.5
		c17.4-3.3,29.3-7,35.3-25.5c5.4,8.8,11.3,17,22.6,16.4c13.3,3.7,22.2,10.8,31.3-5c19.7,21.1,24.2,54.1,27.6,82
		c8.9,55.3-61.7,46.6-46.1,102.3c5.7,20.2,14.5,42.2-2.9,59.5c-1.8,1.9-2.4,5.8-2,8.5c0.9,6.8,1.3,6.8-5.9,7.3
		c-3.8-15.2-31.9-16.3-12.3,0c-14.6-0.7-17.7-18.2-10.6-28.5c-0.6-0.2-1.2-0.5-1.8-0.7c-5.2,4-4.8,11.8-5.7,17.7
		c0.9,16.9,22.4,14,34.2,13.9c1,7.1,1.9,13.8,2.9,20.9c-19.3-5.4-33.6,12.3-49.5,19.3c10.8,18.4,23.8,23.4,44,26.7
		c-2.1,6.1,5,6.4,8.8,6c9.8-2.5,27.7,7.6,21.8,18.8C283.1,473.2,281.9,477.7,282.3,484.8z"/>
	<path class="st0" d="M133,166.7c7.9,13.3,24,24.4,17.5,41.2C138,259,96.2,276.1,51.9,294.8c-40.6,20.5-32.7,61.1-8.1,84.9
		c26.3,25.2,59.6,44.3,69.9,81.6c22.2,62.7,25,135.8-15,191.9c-1.7,2.7-3.6,2.3-5.9,1.6c-22.1-8.3-42-0.6-61.8,10.5
		c-73.6-59.8,18.2-77.1,21.4-173c10.5-75.9-60.9-96.4-25.1-186.8c3.4-8.7,8.5-15.8,17.4-20.3c9.3-3.4,16.5-14.6,26.7-14.5
		C109.9,280.8,129.3,194.3,133,166.7z"/>
	<path class="st0" d="M148.6,452.1c16.9,34,59.9,77.9,34.3,116.4c-27.7,35.7-9,61.2-26.3,81.2c-26.2,29.1-18.8,17.7-57.3,6.7
		c45.5-63.5,40.1-150,6.6-217.7c-15.5-30.8-50-43.1-69.2-71C19,346.4,23.3,310,50,298.4c37.9-17.8,81.9-31.6,97-74.9
		c4.7-12.5,11.9-27.6,1.6-39.4c-19.5-25.4-16.4-18.8-11.1-47.8c2.3-23.1,40.4-39.5,53.3-17c1.7,4.5,0.3,6.8-4.4,6.6
		c-39.1-1-50.8,30.5-33.3,62.2c13.4,31.3,6.3,59.8-18.7,81.8c-9.2,13.8-19.7,29.3-16.4,46.8c1.1,12-11.6,20.1-8.5,33.9
		c4.9,16.7,12.4,32.9,15.4,50.3c3,17.3,7.5,34.4,14.4,50.6C141.7,457.5,143.9,457.3,148.6,452.1z"/>
	<path class="st0" d="M344.2,267.9c3.3,1.1,6.5,2.1,9.1-2.7c-2.1-0.2-3.4-0.4-5.1-0.5c0.1-1.6-0.4-4,0.5-5.1c4.8-6.8-8.8-7.1-13-9.3
		c6.9-8,18.5-7.9,27.9-9.4c-3.4-5.6-4.4-5.5-11-4.2c-11.6,0.1-23,0-34.9,1.4c-1.8-4.8-3.2,0.1-5,1.5c-3.8-4.7-4.7,0.1-6.5,2
		c-6.6-3.1-10,3.8-16.1,4c43.1-25.4,18.4-93.2,0.2-128.1c0.4-0.4,0.8-0.7,1.1-1.1c15.9,10.6,22.8,30.1,36.2,43.2
		c19.3,20.3,21,51.5,41.8,69.8c6.8,1.9,6.9,6.9,7.2,12.6c7.3,54.8-2.2,109.9-21.8,161.4c0.9-24.5-14.1-37.9-27.4-56.5
		c3.9-3.8,7.6-7.5,11.4-11.2c10.5-10.1,30.3-43.9,6.7-49c-60.2-10.5-47.4,25.1-21.4,60.2c-9.6,7.4-17.8,16.9-32.1,16.8
		c7.6-9.7,8.9-14.2-1.6-22.5c4,10.2,2.6,16-4.6,24.1c-0.5-0.3-0.9-0.5-1.4-0.8c1.5-19.3-16.5,2-20.3,8.3c-3.2-7.7-2.3-12.1,2.2-17.5
		c27.5-32.3-27.9-80.2,18.8-105.2c-3.3,4.9-5.2,14.2,3.2,12.2c2.8-0.9,4.6-4.1,8.2-2.9c0.2,0.1,0.7-0.2,0.8-0.5
		c3.7-8.5,13.7-5,19.5-10.3c4.2-2.9,13.1-0.3,18.5-2.8c-2.6,5.5-2.6,5.6-8.5,6.9c-6.7,0-47.8,18.7-37.1,26.2
		C307.7,288.2,334.6,288.5,344.2,267.9L344.2,267.9z"/>
	<path class="st0" d="M330.7,472.9c1.7,14.5,7.2,26.7,15.6,37.5c9.4,12,22.3,19.2,36,25.2c31.1,13.6,63.2,24.2,96.8,29.9
		c7.7,1.3,14.9,4.9,22.4,7.4c-0.1,0.5-0.2,1-0.3,1.4c-6.7,0.4-13.4,1-20.1,1c-38.1,0.5-76.2,0.4-114.2,1.5
		c-13.7,0.4-27.5,2.7-40.9,5.7c-23.3,5.2-39.4,19.8-49.2,41.5c-0.3,0.8-0.7,1.5-1,2.2c0,0.1-0.3,0.1-0.9,0.3c0-3.3,0-6.5,0-9.8
		c-0.3-28.9-0.5-57.9-1-86.8c-0.2-11.9-1-23.9-1.9-35.8c-0.3-4,1.1-4.8,4.7-4.8c8.5,0.2,17,0.9,25.3-0.1
		C313.2,487.9,322.9,482.9,330.7,472.9z"/>
	<path class="st0" d="M431.4,275.3c4.4,24.3,13,47,20.8,70c13,38.6,10,76.8-3.2,114.5c-7.5,21.3-15.8,42.3-24.8,63.1
		c-3,7-8.9,12.7-13.7,18.9c-0.6,0.8-2.8,1.2-3.9,0.8c-6-2-12-4-17.7-6.6c-1.6-0.7-3.1-3.4-3.3-5.3c-2.3-20.5,0.9-40.1,10.1-58.7
		c1-2.1,1.8-4.3,2.9-6.4c10.7-19.6,14.2-40.7,13.2-62.7c-0.6-14.5-0.8-29-2.3-43.3c-2.5-24,2.7-46.3,13.5-67.5
		C425.8,286.5,428.6,280.9,431.4,275.3z"/>
	<path class="st0" d="M204.9,679.1c6.6-1.2,13.2-2.4,19.8-3.6c57.8-10.6,116.1-13.9,174.8-11c24.7,1.2,49.4,3.5,73.5,9.8
		c2.9,0.8,5.9,1.6,8.4,3c2.3,1.3,4,3.5,6,5.4c-1.8,2-3.3,4.6-5.6,5.8c-4.3,2.3-9,4.3-13.7,5.8c-31.1,9.8-63.2,11.5-95.6,11.2
		c-35.6-0.3-70.3-6.9-105-14.4c-19.9-4.3-40.2-7.2-60.3-10.8c-0.7-0.1-1.5-0.3-2.2-0.5C204.9,679.6,204.9,679.3,204.9,679.1z"/>
	<path class="st0" d="M374.4,230.4c-16.5-12.3-22.4-33-30.6-51.3c54.9,32.1,57.9-26.9,100.9-36.7c4.3,25.7-10.2,49.7-12.1,75
		c-2,14.4-1,29.2-1.5,43.8c-46.3,69.1-68.9,150.3-76.5,233.3c-13-19.8-20.9-47.5-8.1-69.1c13.6-22.4,20.6-47.4,26-72.9
		c3.8-35.7,15.7-17.4,22.8-44.9c4-19.2,38.9-119.2-7.1-100.5C380.6,212.6,374.9,219.4,374.4,230.4z"/>
	<path class="st0" d="M430.1,272.6c-4.1,8.5-8.3,17-12.3,25.5c-10.1,21.2-12.8,43.4-10,66.7c2.7,21.9,3.2,43.9,0.2,65.7
		c-1.4,9.8-5.6,19.4-9.1,28.8c-3,8.1-7,15.8-10.2,23.9c-5.6,14.2-6.5,29.1-5.8,44.2c0.1,1.8,0.3,3.6,0.6,6.7
		c-6.6-3.5-12.4-6.6-18.5-9.9c3.7-6.7,0.2-12.1-3-16.6c-5.1-7.1-5.1-14.6-4.2-22.3c5.7-48.2,15.3-95.5,31.7-141.2
		C399.7,315.6,414,290.7,430.1,272.6z"/>
	<path class="st0" d="M186.2,65.6c-49.3,6.3-74.6,54.3-70.2,100.4c0.4,15.2-0.2,30.3-4.8,45c-4,19.8-48.9,84.5-58.1,38
		c-0.2-25.3,20.5-44.2,31-65.8c14.8-25,16.4-54.1,23.8-81.5C119.3,61.6,157.2,54.9,186.2,65.6z"/>
	<path class="st0" d="M276.1,447.5c1.8-2.5,3.5-4.8,5.2-7.2c-0.4-0.4-0.9-0.8-1.3-1.1c1.3-0.6,2.6-1.4,4-1.7
		c11.9-3.2,19-11.6,24.3-22c1.1-2.2,3.1-4.1,4.9-6c1.6-1.7,2.6-3.3-0.1-4.7c-8.1-4.2-16.2-8.3-24.4-12.5c-5.9-3-11.5-2.2-17.1,1.1
		c-2.2,1.3-4.7,2.3-8,3.8c-1-6.4-2.3-11.9-2.7-17.5c-0.5-7,8.1-6.7,9.4-10.7c21.1-1.6,40.8-3.8,55.5-21.2
		c7.8,10.8,16.3,20.3,22.1,31.1c6.3,11.7,7.7,25.5,1,37.5c-13.2,23.7-30,44.9-52.1,61.2c-2.5,1.8-5.5,3-8.5,4
		c-3.4,1.1-4.9-0.5-3.8-3.9c1-3.2,2.4-6.2,3.7-9.2c3-7.2,1.8-11.9-4.6-16.4C280.8,450.4,278.1,448.8,276.1,447.5z"/>
	<path class="st0" d="M360.2,49.3C328.7,58.8,334,91,311.9,97c-4.6,2.1-21.6,9.8-12.5,16.1c-4.2,0-7.2,0-11.3,0
		c10-14.5,17.7-29.4,8.6-46.3c-16.8-34.9-43.4-56-83.3-59.1C267.2-5,326.1,2.6,360.2,49.3z"/>
	<path class="st0" d="M71.1,268.1c40.6-27.8,50.3-70.8,47-117.3c-0.6-40.2,32.1-86.4,75.4-81.6c9.8,6.5,19.6,13,29.2,19.9
		c3.6,2.6,4.5,11.9,1.9,17.3c-6.4,10.6-35.8-6.5-46.2-7.1c-20-3.6-32.1,9-41.1,25.5c-12.6,13.6-7,27.4-7.2,43.5
		c-3.5,25.6-8.2,51-21.9,73.6C99,253.5,89.9,276.3,71.1,268.1z"/>
	<path class="st0" d="M57.5,223c0.7-51.9,10.1-103,38-147.1c18.8-15.8,44.4-22.2,68.8-17.7C77.1,66,125,136.4,57.5,223z"/>
	<path class="st0" d="M286.3,109c-29.5-60.6-67.8-81.5-134.1-81.2c29.2-14.1,61.7-25.3,92.1-8.2c39.2,11.4,49.7,53.3,43.4,89.3
		C287.2,108.9,286.7,108.9,286.3,109z"/>
	<path class="st0" d="M162.9,469.4c9.9,11.4,20.2,22.4,29.6,34.2c8.4,10.6,12.9,23.5,14.4,36.8c0.9,7.5-0.4,15.8-2.8,23
		c-3.3,9.7-8.3,18.8-13.1,27.8c-9.3,17.2-13,35.2-8.6,54.3c2.7,11.6,5.4,23.3,15.2,32c-20.4,3.8-39.5,2.7-57.7-7.6
		c3.2-3,6.8-6.1,10-9.5c4.1-4.5,8.8-8.9,11.6-14.2c2.8-5.2,5.3-11.5,5.1-17.3c-0.6-21.7,5.3-40.9,17.6-58.7
		c12.5-18,11.1-37.2,2.2-55.9c-6.6-13.8-14.7-26.8-22.2-40.1c-0.7-1.3-1.5-2.6-2.2-3.8C162.3,470,162.6,469.7,162.9,469.4z"/>
	<path class="st0" d="M282.2,111.6c-10.4,0.7-19.9,6.7-28.6,2.5c-9.2-9.7-22.3-16.9-27.7-29.4c-7.9-19.1-28.9-17.9-45.5-24.1
		c-27.8-11.5-53.2-4.7-78.9,6.7c10.4-10.9,19.3-20.8,32-28.3C191.8,31.2,251.9,62,282.2,111.6z"/>
	<path class="st0" d="M296.2,116.1c4.9-2.9,7.7-1.4,11.1,1.2c11,8.4,24.2,11.8,37.6,13.4c29.5,2,59.4,0.6,89,1.7
		c3.2,0.1,6.3,1.9,9.5,3.7c-10.7,1.3-17.1,8-23.9,15.1c-15,15.8-36.8,19.2-57.7,10.5C336.7,150.8,321.8,125.7,296.2,116.1z"/>
	<path class="st0" d="M269.6,487.9c0.7,10.7,1.3,21,2,31.9c-8.1,0.5-15.7-0.6-23.1-3.1c-20.2-6.6-35.5-19.7-48.8-35.8
		c-8.3-10-15.1-20.8-20.2-34.2c13.4,11.7,26.3,22.2,41.7,28.5C236.6,481.6,252.4,486.7,269.6,487.9z"/>
	<path class="st0" d="M379.7,326.5c1.7-29.9,2.5-58.8-1.2-88.4c-0.3-3.4,0-5.8,3.8-7.4c15.8-15.1,26.4-36.6,26.3,2.3
		C404.1,254.1,398.1,316.5,379.7,326.5z"/>
	<path class="st0" d="M327.1,346.3c-10.1-12.9-18.4-24.6-21.6-39.2c-0.6-2.9-0.7-5.9-0.7-8.9c0-3.7,1.8-6.3,5.4-7.5
		c11.9-4.2,24-5,36.2-1.4c7.1,2.1,9.1,5.4,7.9,12.7c-2,11.4-6.9,21.4-14.6,30.1C335.6,336.6,331.5,341.3,327.1,346.3z"/>
	<path class="st0" d="M160.5,306.9c-1.1,2.4-2.2,4.7-3.3,7.1c-3.1,7.3-6.2,14.6-9.4,21.9c-1.2,2.8-2.6,5.7-4.4,8.2
		c-3.6,5.1-7.5,10-12,15.9c-3.4-11.8-7.9-23-9.3-34.5c-0.8-6.7,2.5-14.4,5.5-21c6.8-14.8,14.5-29.1,22.1-43.5
		c0.5-0.9,2.5-1.2,3.8-1.5c1.4-0.2,2.8,0,4.5,0c0.6,4.6,1.2,9.5,1.9,14.8c-2.6-0.2-5-0.4-7.7-0.6c0.1,1.3,0.2,2.4,0.2,3.7
		c-1.7-0.2-3.1-0.3-5-0.6c1.1,2.4,1.9,4.3,3,6.8c0.9,0.1,2.5,0.3,3.2,0.4c-0.8,4.1-2.8,8.6-2,12.4c0.8,3.8,4.4,7.1,6.8,10.6
		C159.3,307,159.9,307,160.5,306.9z"/>
	<path class="st0" d="M437.4,130.6c-43.2-4.6-92.8,10-130.9-16.5c23.3-19.5,29.9-9.9,55.1-2.5c13.5,3.9,27.2,7.3,40.9,10.5
		c12-0.2,24.3,2.1,35.2,7.5C437.6,130,437.5,130.3,437.4,130.6z"/>
	<path class="st0" d="M448.2,143.2c17,35.5,8.5,93-15.2,118.8c-1.3-28.9,1.5-55.8,9.8-83.2C445.8,167.2,449.8,155.7,448.2,143.2z"/>
	<path class="st0" d="M95.2,657.8c-0.5,1.1-0.8,1.9-1.2,2.6c-7.9,12.2-15.8,24.4-24.2,37.3c-12-10-23.7-19.8-35.7-29.9
		C52.4,652.4,72.8,650.5,95.2,657.8z"/>
	<path class="st0" d="M308,123.4c30.8,25.4,61.2,61.3,103.8,36.8c-16.2,23.1-47.6,37.8-69.7,13.2C332.2,155.7,320.7,139.9,308,123.4
		z"/>
	<path class="st0" d="M145.9,346.1c-2,20.5,7.6,37.3,16.9,54.2c4.1,7.6,8.1,15.2,12.3,22.8c10.3,18.7,23.4,35,41.3,47.3
		c-1-0.3-2.1-0.5-2.9-1c-22.8-13.5-42.1-30.8-56.6-53c-10.4-15.9-17.2-33.7-23-51.7c-0.4-1.2,0-3,0.7-4.1c3.1-5,6.5-10,9.8-14.9
		C144.9,345.8,145.4,346,145.9,346.1z"/>
	<path class="st0" d="M328.8,98.6c12.7-14,37.3-12.3,54.7-9.4c10.3,3.5,4,21.8,26.7,30.2c-0.1,0.4-0.2,0.8-0.3,1.2
		C382.1,117.7,355.9,105.8,328.8,98.6z"/>
	<path class="st0" d="M291.7,412.9c5.8-0.8,10.4-1.5,16.5-2.4c-5,10.6-10.6,18.5-20.4,23.4c-9.6,4.8-20,4.2-30,6.2
		c-11.7,2.3-33.4-8.3-39.2-18.8c-0.1-0.3-0.1-0.6-0.2-1.4c7-0.9,14-1.8,21.2-2.8c-0.7,1.6-1.3,2.8-1.8,4c0.4,0.5,0.6,1,0.8,0.9
		c4.9-0.5,8.9-0.6,11.9,5.1c1.9,3.7,7.5,2.5,10.3-0.2c6.3-6.2,14.2-5.7,21.8-6.5c1.8-0.2,3.7-0.2,5.5-0.4
		C291.6,419.6,294.5,418.4,291.7,412.9z"/>
	<path class="st0" d="M279.7,100.5c-37.3-42-81.8-67.4-139.7-65.9C195.3,18.2,255.1,49.2,279.7,100.5z"/>
	<path class="st0" d="M73.1,696.5c6.8-10.5,13-20.2,19.3-29.9c5.4-8.3,5.5-8.3,15-5c8.6,3,17.2,6,26.6,9.3
		C116.2,685.8,95.7,692,73.1,696.5z"/>
	<path class="st0" d="M387.8,87c-16.5-2.3-31.2-2.2-47.4,0.8c8.5-12.1,20.3-21.7,25.9-36.9C385.2,47.3,387.6,71.9,387.8,87z"/>
	<path class="st0" d="M154.5,251.6c7.7-20.7,10.6-42.7,0.9-63.3c-19.3-34.1-2.6-63.5,33.2-60.4c-13.6,15-30.4,14.3-32.8,39.4
		c2,27.3,12.6,54.1,3.8,81.6c-0.2,1.5-2.8,2.5-4.3,3.7C155,252.3,154.8,252,154.5,251.6z"/>
	<path class="st0" d="M149.6,335.4c4.3-9.3,8.5-18.4,12.9-27.5c0.4-0.7,1.9-1,2.9-1.2c8-2,16.1-3.6,23.9-6
		c7.9-2.4,15.5-5.8,23.4-8.1c2.7-0.8,5.9,0.3,8.8,0.5c-2,2.2-3.6,5.2-6.1,6.5c-10.9,5.6-22.2,10.3-33,16.2
		C171.4,321.7,160.9,328.6,149.6,335.4z"/>
	<path class="st0" d="M338.2,439.2c-1.9,21.3,3.7,40.6,15.4,58.3c0.8,1.2,1.3,2.7,1.5,4.1c0.6,5.2,1,10.4,1.7,17.4
		c-4.4-5.3-8.3-9.4-11.5-14.1c-11.4-16.5-15.2-35.2-13.6-54.9c0.3-4,3.4-7.7,5.2-11.5C337.3,438.8,337.7,439,338.2,439.2z"/>
	<path class="st0" d="M32.5,669.3c11,9.3,22.2,18.6,34.1,28.7c-12.4,1.7-23.8,1.7-34.4-3.5C21.5,689.2,21.6,678,32.5,669.3z"/>
	<path class="st0" d="M146.4,114.7c21.1-31.5,49.1,0.7,75.9-3.6c-0.9,7.1-15.7,13.7-28.9,14C191.1,100.1,163,105.6,146.4,114.7z"/>
	<path class="st0" d="M146.4,439.6c-8.4-15.1-19.6-29-19-47.6c0-1.7,0-3.3,0.2-5c0.1-0.9,0.7-2.2,1.2-2.3c0.9-0.1,2.4,0.2,2.9,0.9
		c2.4,3.2,5,6.3,6.7,9.8C145.1,409.4,147,424.2,146.4,439.6z"/>
	<path class="st0" d="M311.8,407.9c-12.8,0-25.5,0-38.8,0c0-1.4,0-3.2,0-6.3c-2.9,2.5-4.8,4.1-7.3,6.2c-0.6-3-1.1-5.7-1.7-8.5
		c2-0.8,3.9-1.1,5.2-2.2c9-7,17.8-4.2,26.4,0.5c5.5,3,10.9,6.2,16.3,9.2C311.9,407.3,311.8,407.6,311.8,407.9z"/>
	<path class="st0" d="M65.2,268.4c-10.8,10.5-25.6,14.5-35.4,25.8c6.9-15,13.8-30,21.3-46.3C51.6,258.6,56.3,265.1,65.2,268.4z"/>
	<path class="st0" d="M324.9,90.5c6.2-9.4,11.8-19.1,18.7-27.9c3.1-3.2,12.7-11.4,17.4-9.6c1.9,3.9-1.5,7.3-3.8,10.1
		C346.7,72.9,342,91.3,324.9,90.5z"/>
	<path class="st0" d="M157.7,457.4c-4.7-6.5-9.2-11.5-8.8-19.6c0.7-12.7-1.4-25.2-6.1-37c-2.2-5.5-4.8-11.3-8.8-15.3
		c-5.8-5.9-6.3-11.4-2.2-18.3c0.5,0.8,1,1.5,1.3,2.3c6.1,15,13.4,29.7,18.1,45.2c3.8,12.5,4.6,26,6.7,39
		C158.1,454.4,157.9,455.4,157.7,457.4z"/>
	<path class="st0" d="M391.3,91.1c8.6,2.7,17.1,5.2,23.4,11.5c3.9,3.8,10.1,16.5,0.1,16C402.9,116.7,392.2,104.4,391.3,91.1z"/>
	<path class="st0" d="M284.2,487.5c6.3-3.1,12.8-5.8,18.9-9.3c3.3-1.9,5.7-5.3,8.8-7.7c2.8-2.2,5.8-4.6,9.1-5.7
		c1.9-0.6,5.5,0.6,6.8,2.2c1,1.3,0,4.6-0.7,6.8c-0.5,1.4-2,2.6-3.3,3.6C311.9,486.6,298.6,489.5,284.2,487.5z"/>
	<path class="st0" d="M160.7,258.8c17.8,2.7,34.8,5.3,52.6,8c-0.6,3.1-1,5.8-1.6,8.6c-8.3-2.8-16.2-5.4-24.2-8.1
		c-1.2-0.4-6.3,1.4-7.8,1.6c-3.2,0.4-6.5,0-9.8,0.1c-1.2,0-2.9,0.2-3.5,0.9c-2.9,3.6-4.4,1.1-5-1.3
		C160.8,265.6,160.9,262.3,160.7,258.8z"/>
	<path class="st0" d="M216.1,415.3c10.5-5.7,21-11.6,31.7-17c2.4-1.2,5.9-0.9,8.8-0.5c6.2,0.9,7.1,2.7,5,8.8
		c-0.3,0.8-0.6,1.5-1.1,2.5c-2.7-2.3-5.2-4.5-7.8-6.7c-0.4,0.3-0.8,0.7-1.1,1c1.4,1.7,2.9,3.5,4.4,5.3c-13.1,2.7-26.2,5.4-39.3,8.1
		C216.5,416.4,216.3,415.8,216.1,415.3z"/>
	<path class="st0" d="M242.2,418.6c4.1-4,10.2-5.3,16.2-4.7c7,0.7,13.5,0.2,20.1-1.8c3.9-1.2,8.1-1.3,12-1.9
		c-0.1,2.5-0.2,4.5-0.4,7.3c-6,0.6-12.4,0.9-18.7,2.1c-3.4,0.6-6.9,2.2-9.6,4.3c-5.8,4.3-8.7,3.9-12.7-2
		C248,420.1,244.8,419.8,242.2,418.6z"/>
	<path class="st0" d="M120,317.9c-3.3-23.5,11.6-39,22.1-56.4c0.7,0.1,1.4,0.2,2.2,0.3c0,1.7,0.6,3.7-0.1,5
		c-3.9,7.7-8.5,15-12.1,22.8C127.8,298.7,124.2,308.1,120,317.9z"/>
	<path class="st0" d="M71.4,700.5c3.7,4,7.5,7.3,10.3,11.2c2.4,3.2,2.4,7.2-0.3,10.7c-2.6,3.3-6.3,3.5-10,2.6c-4-1-5.8-4.1-6.3-8
		C64.2,710.8,66,705.6,71.4,700.5z"/>
	<path class="st0" d="M344.2,267.9c-6.6,6.1-12.9,12.4-22.2,14.4c-8.6,1.9-16.8,0.5-24.8-2.4c-4.1-1.5-4.6-5.2-1.5-8.1
		c2.4-2.2,5.1-4,6.9-5.4c1.9,4.5,2.9,9.2,5.6,12.6c1.5,2,5.6,2.6,8.6,2.6c8.4-0.1,12.8-6.7,12.2-17.8
		C334.2,265.2,339.2,266.6,344.2,267.9C344.2,267.9,344.2,267.9,344.2,267.9z"/>
	<path class="st0" d="M126.4,375.7c-4.4-4.6-8.1-8.6-7.8-15.2c0.5-9.3,0.6-18.6,0.8-27.9c0.5,0,0.9,0,1.4,0
		c3.2,9.8,7.1,19.5,9.3,29.6C131,366,127.9,370.8,126.4,375.7z"/>
	<path class="st0" d="M283.1,48.7c16.2,15.5,19.8,40.9,7.9,54.9C292.8,84.7,291,66.5,283.1,48.7z"/>
	<path class="st0" d="M401.3,207.5c-7.1,7.6-14.2,15.2-21.6,23C373.3,220,391.1,201.7,401.3,207.5z"/>
	<path class="st0" d="M310.5,263.6c-1.6,4.5-1.5,8.5,2.8,10.5c2,0.9,6,1.1,6.9-0.1c1.9-2.6,2.3-6.2,3.6-10.3c1.5-0.1,3,1.2,3.3,4.2
		c0.5,5.5-3.2,10.4-8.8,11.6c-4.8,1.1-9.7-1.1-11.3-5.1C305,270,306.1,266.4,310.5,263.6z"/>
	<path class="st0" d="M143.3,453.7c-8.2-10.8-10.1-23.9-12.4-37c1.6,3.7,3.1,7.3,4.9,10.9c2.8,5.8,6,11.5,8.7,17.4
		c1.1,2.4,1,5.3,1.4,8C145,453.3,144.1,453.5,143.3,453.7z"/>
	<path class="st0" d="M200,273.6c2.4,0.9,5.6,1.9,8.8,3.2c2.5,1,2.4,2.8,0.9,4.7c-2.9,3.8-9.6,7.6-14.4,8.5
		C196.6,285.2,198.2,279.9,200,273.6z"/>
	<path class="st0" d="M118,327.9c-0.7,11.4-1.3,23-2,34.3C108.4,358.5,110.4,335.6,118,327.9z"/>
	<path class="st0" d="M176.6,275.3c1.8,8.1,4.8,11.2,9.9,10.3c4.9-0.8,7.4-5.1,6.7-11.7c4.1,2.6,4.5,7.2,1.1,12.1
		c-3.2,4.6-10.5,5.7-15.1,2.3C175.1,285.3,173.7,278.7,176.6,275.3z"/>
	<path class="st0" d="M161.2,303.7c-5.8-2.1-8.4-5.8-7.9-10.6c0.5-4.7,3-7.4,7.9-8C161.2,291.2,161.2,297.3,161.2,303.7z"/>
	<path class="st0" d="M232,95.8c5.9,7,11.8,13.9,16.9,20C242.4,117.1,232.2,107.4,232,95.8z"/>
	<path class="st0" d="M453.6,146.2c7,8.7,4.8,21.1,7.2,31.5c-0.4,0.1-0.8,0.1-1.2,0.2c-2.3-10.3-4.7-20.5-7-30.8
		C452.9,146.8,453.2,146.5,453.6,146.2z"/>
	<path class="st0" d="M176,290.2c-3.8-1.9-7.1-3.3-10.2-5.2c-2.5-1.5-3-3.5,0.2-5.1c2-1,4.1-2,6-3
		C173.3,281.2,174.5,285.2,176,290.2z"/>
	<path class="st0" d="M316.8,463.2c3.9-4.5,7.9-9,12.2-14c0,5.3,0,9.9,0,14C325.1,463.2,321.1,463.2,316.8,463.2z"/>
	<path class="st0" d="M280.3,113.9c-3.6,8.2-11.5,9.9-20.1,4.2C267,116.7,273.5,115.3,280.3,113.9z"/>
	<path class="st0" d="M319.3,98.1c-5.1,2.2-17.4,15.2-21.4,11.1c6.2-6.4,13-10.2,20.8-12.6C318.9,97,319.1,97.6,319.3,98.1z"/>
	<path class="st0" d="M237.1,363.4c6.4-0.3,11.6,3.1,13.9,8.8C242.8,372.3,238.6,369.8,237.1,363.4z"/>
	<path class="st0" d="M312.9,132.6c6.5,9.1,13,18.1,19.5,27.2c-0.5,0.4-1.1,0.8-1.6,1.1c-6.4-9.1-12.9-18.2-19.3-27.4
		C312,133.3,312.4,132.9,312.9,132.6z"/>
	<path class="st0" d="M223,85.1c-6.3-5.3-12.7-10.5-19.8-16.5C213,71.3,219.3,76.6,223,85.1z"/>
	<path class="st0" d="M124,392.3c-1.4-6.4-2.8-12.7-4.3-19.5c9.3,5,4.7,12.9,5.6,19.5C124.9,392.3,124.5,392.3,124,392.3z"/>
	<path class="st0" d="M357.9,504c3.1,6.2,6.6,10.8,6.6,17.2C359.4,519.1,357.4,513.8,357.9,504z"/>
	<path class="st0" d="M319.5,264.1c0.3,2.2,1,4.5,0.7,6.6c-0.1,0.9-2.7,2.4-3.7,2c-2-0.6-3.6-2.3-5.2-3.4
		C314.4,267.4,316.5,266,319.5,264.1z"/>
	<path class="st0" d="M129.9,153.1c1.5-7.6,2.9-15.2,4.4-22.9c0.6,0.1,1.3,0.2,1.9,0.4c-1.4,7.6-2.9,15.3-4.3,23
		C131.2,153.4,130.5,153.3,129.9,153.1z"/>
	<path class="st0" d="M178.8,277.2c5.3,3.8,8.8,3,11.6-1.8c2.1,4.6-0.6,7-3.6,7.9C183,284.4,180.2,282.6,178.8,277.2z"/>
	<path class="st0" d="M272.5,365.7c2.1-2,4.1-4.2,6.5-5.9c0.8-0.6,2.5-0.1,3.7-0.2c-0.3,1.5-0.1,3.8-1,4.3c-2.5,1.4-5.5,2.1-8.2,3.1
		C273.1,366.5,272.8,366.1,272.5,365.7z"/>
	<path class="st0" d="M427.3,146.6c4.4-4.9,9.9-7.8,16.9-6.7C438.6,142.1,432.9,144.4,427.3,146.6z"/>
	<path class="st0" d="M319.7,98.6c3.2-2.1,6.4-4.2,9.6-6.3c0.4,0.5,0.8,1.1,1.2,1.6c-3.1,2.4-6.1,4.7-9.2,7.1
		C320.8,100.2,320.3,99.4,319.7,98.6z"/>
	<path class="st0" d="M268.7,443.7c2.9-1.1,5.7-2.1,8.5-3.2c0.2,0.8,0.5,1.6,0.8,2.4c-3,0.9-5.9,1.8-8.8,2.6
		C269,445,268.9,444.3,268.7,443.7z"/>
</g>
<g id="Outline_1_">
	<g id="Outline">
		<path d="M412.1,544.5c29.8,15.6,65.7,12.9,95.2,29.6c4.9,1.7,10.7,1.5,15.8,2.3c0,0.5-0.1,1-0.1,1.5c-2.3-0.1-4.7-0.3-8.6-0.5
			c3.8,2,6.3,3.4,8.8,4.7c-0.2,0.4-0.4,0.9-0.5,1.3c-18.4-11.7-39.3-5.4-59.7-5.5c-44.1,1.4-88.8-2.9-132.4,5.5
			c-33.3,5.9-43.7,26.3-58.3,52.5c0-37.9,0-75.2,0-112.7c-45.6-1.9-79.2-37.6-96.3-77.5c-5.8-10.2-13.6-17.6-21.2-27.5
			c3.5,14.4,5.7,27.8,5.1,41.7c5.1,14,20.1,23.5,29,35.5c11.3,12.7,17.1,28,20.2,44.4c2.7,45.5-45.7,68.9-19,122.6
			c3.3,5.6,6,15.3,14.1,14.5c65.1-10.5,130.9-19.9,197-14c11.5,2.3,112.3,5.8,80.9,27.4c-87.8,36.3-184.4,7.7-273.7-7.7
			c-20.2-5-40.5,4.4-59.2-6.5c-8.4-3.8-14.9-3.5-22.5,2.4c-15.6,12.2-35,15.6-53.6,20.7c38.8,31.9-28.6,42.4-5.6,1.1
			c-21.2,2.7-63.1-4-38-32.3c-79-68.9,25.1-75,21.4-196.1c-3.8-74.2-69.1-69.4-18.4-189.5C47.2,253.8,58.1,224,57,191.5
			c2.4-40.9,16.1-78.7,33.3-115.2c52.6-60.8,78.9-66.6,156.5-75.4c35.9-3.6,75.7,4.6,100.9,32.1c5.9,4.8,10,13.8,17.7,15.6
			c34.6,0.7,16,36.3,29.2,41.5c13.3,4.9,33.5,12.5,26.2,30.4c11.9,3.5,23.1,9.1,29.9,19.8c10.9,4.6,9.5,15.1,10.5,23.8
			c4.4,34.3-6.1,67.6-22.7,97.4c-10.5,14.8,6.9,52.9,11.5,70.2C478.6,403.6,451.9,482.4,412.1,544.5z M344.2,267.9
			c-5-1.4-10-2.7-15.2-4.1c1.8,15.1-10.7,22.3-20.8,15.2c-2.7-3.5-3.7-8.1-5.6-12.6c-23.5,13.7,6.8,18.7,19.4,15.9
			C331.3,280.3,337.6,274,344.2,267.9c-9.6,20.6-36.5,20.3-54.2,11.1c-10.8-7.5,30.3-26.1,37.1-26.2c5.9-1.3,5.9-1.4,8.5-6.9
			c-5.4,2.5-14.3-0.1-18.5,2.8c-5.8,5.3-15.8,1.9-19.5,10.3c-0.1,0.2-0.6,0.6-0.8,0.5c-3.6-1.2-5.5,2-8.2,2.9
			c-8.5,2-6.6-7.3-3.2-12.2c-46.7,25,8.7,72.8-18.8,105.2c-4.5,5.4-5.4,9.9-2.2,17.5c3.8-6.3,21.9-27.6,20.3-8.3
			c0.5,0.3,0.9,0.5,1.4,0.8c7.2-8.1,8.6-14,4.6-24.1c10.6,8.3,9.3,12.8,1.6,22.5c14.3,0.1,22.5-9.4,32.1-16.8
			c-26.1-35.1-38.9-70.7,21.4-60.2c23.6,5.1,3.8,38.9-6.7,49c-3.8,3.7-7.5,7.4-11.4,11.2c13.3,18.5,28.2,32,27.4,56.5
			c19.6-51.5,29.1-106.6,21.8-161.4c-0.2-5.7-0.4-10.7-7.2-12.6c-20.9-18.2-22.5-49.5-41.9-69.8c-13.4-13.2-20.4-32.6-36.2-43.2
			c-0.4,0.4-0.8,0.7-1.1,1.1c18.2,34.8,42.9,102.7-0.2,128.1c6-0.2,9.5-7.2,16.1-4c1.8-1.9,2.7-6.7,6.5-2c1.8-1.5,3.2-6.4,5-1.5
			c11.9-1.4,23.3-1.3,34.9-1.4c6.6-1.4,7.6-1.5,11,4.2c-9.4,1.5-21,1.4-28,9.4c4.2,2.2,17.8,2.5,13,9.3c-0.9,1.1-0.4,3.4-0.5,5.1
			c1.7,0.2,3,0.3,5.1,0.5C350.8,270,347.5,269,344.2,267.9z M282.3,484.8c-0.3-7.1,0.8-11.7,4-17.5c5.9-11.2-12-21.2-21.8-18.8
			c-3.9,0.4-11,0.1-8.8-6c-20.2-3.3-33.3-8.3-44-26.7c15.9-7,30.1-24.7,49.5-19.3c-1-7.1-1.9-13.8-2.9-20.9
			c-11.8,0.1-33.2,3.1-34.2-13.9c1-5.9,0.5-13.7,5.7-17.7c0.6,0.2,1.2,0.5,1.8,0.7c-7.1,10.3-4,27.8,10.6,28.5
			c-19.6-16.4,8.5-15.2,12.3,0c7.1-0.5,6.8-0.5,5.9-7.3c-0.4-2.7,0.3-6.6,2-8.5c17.4-17.4,8.6-39.3,2.9-59.5
			c-15.6-55.7,54.9-47,46.1-102.3c-3.4-28-7.9-60.9-27.6-82c-9.2,15.8-18,8.6-31.3,5c-11.2,0.6-17.1-7.6-22.6-16.4
			c-6,18.5-17.8,22.1-35.3,25.5c-69.3,37.4-14.8,61-32.4,122.6c5.2,0.3,9.9,2,14.5,1.4c2.6-4.5,5.7-1.1,8.7-0.6
			c8.8,1.9,37.2,2.5,31.4,16.7c-1.9,3.4-4.6,6.9-1.2,11.3c3.5,5.1-4.9,5-7.6,7.1c-13,11.6-29.1,6-44,1.7c0,5,0,10.6,0,16.8
			c8.1,3,69.2-28.6,57.7-7c-31,23.1-95.4,27.9-67.1,81.5C178.2,431.8,215.9,492.9,282.3,484.8z M133,166.7
			c-3.5,27-23.2,114.4-61.8,104.1c-10.1-0.1-17.4,11.1-26.7,14.5c-8.9,4.5-14,11.6-17.4,20.3c-35.8,90.7,35.6,110.7,25.1,186.8
			c-3.3,96.2-95,113-21.4,172.9c19.8-11.2,39.7-18.8,61.8-10.5c2.4,0.7,4.2,1,5.9-1.6c40-56.1,37.2-129.1,15-191.9
			c-10.3-37.3-43.6-56.3-69.9-81.6c-24.6-23.8-32.6-64.4,8.1-84.9c44.7-18.9,85.8-35.5,98.6-87C157,191,140.8,180,133,166.7z
			 M148.6,452.1c-4.6,5.2-6.9,5.4-9.4-0.7c-6.9-16.2-11.4-33.2-14.4-50.6c-3-17.4-10.5-33.6-15.4-50.3c-3.1-13.8,9.6-21.9,8.5-33.9
			c-3.3-17.4,7.2-32.9,16.4-46.8c25-21.9,32.1-50.6,18.7-81.8c-17.5-31.5-5.7-63.4,33.3-62.2c4.8,0.2,6.1-2.1,4.4-6.6
			c-12.9-22.4-51-6.1-53.3,17c-5.3,29.1-8.4,22.4,11.1,47.8c10.3,11.8,3.1,26.8-1.6,39.4c-15.1,43.3-59.1,57.1-97,74.9
			c-26.7,11.6-31,48-13.4,69.4c19.1,27.8,53.6,40.2,69.2,71c33.5,67.7,38.9,154.3-6.6,217.7c38.6,11.1,31.1,22.4,57.3-6.7
			c17.2-19.7-1.2-45.7,26.4-81.2C208.5,530,165.5,486.2,148.6,452.1z M330.7,472.9c-13.4,18.3-34.2,17.5-54,16.4
			c-3.6-0.1-5,0.8-4.7,4.8c3.3,44,2.3,88.2,2.9,132.3c16.8-38.6,52.5-48.6,92-49.7c44.7-1.7,89.6,0,134.3-2.5c0.1-0.5,0.2-1,0.3-1.4
			C443.8,551,341.7,549.5,330.7,472.9z M431.4,275.3c-45.3,66.9,0.4,125.7-32.9,190.4c-8.9,17.9-20.8,52.5-9.7,70.3
			c6.3,1.8,15.4,8.4,21.6,5.7c4.8-6.1,10.7-11.9,13.7-18.9C476,406.4,465.4,391.3,431.4,275.3z M204.9,679.1c0,0.3,0,0.5,0.1,0.8
			c86.6,14.5,176,41.3,263.1,14.4c7.3-2.5,14.9-4.8,19.3-11.6C426.3,648.2,274.8,665.8,204.9,679.1z M374.4,230.4
			c0.5-11.1,6.1-17.8,13.7-23.2c46-18.9,11.1,81.5,7.1,100.5c-7,27.5-18.9,9.3-22.8,44.9c-5.4,25.5-12.4,50.4-26,72.9
			c-12.8,21.6-5,49.2,8.1,69.1c7.6-83,30.2-164.2,76.5-233.3c0.5-14.6-0.5-29.4,1.5-43.8c1.9-25.4,16.4-49.3,12.2-75
			c-42.9,9.8-46.1,68.9-100.9,36.7C352,197.4,357.9,218.1,374.4,230.4z M430.1,272.6c-47.4,55-62.7,141-72.3,212.7
			c-5,19.2,13.6,25.5,7.2,38.9c6.1,3.3,11.9,6.4,18.5,9.9c-7.3-39.3,16.7-67.6,24.5-103.6C415.8,365.4,391.6,336.3,430.1,272.6z
			 M186.2,65.6c-28.9-10.7-66.9-4-78.2,36.1c-7.4,27.4-9,56.5-23.8,81.5c-10.5,21.6-31.2,40.5-31,65.8c9.2,46.6,54.1-18.4,58-38
			c4.6-14.6,5.2-29.8,4.8-45C111.6,119.9,136.9,71.9,186.2,65.6z M276.1,447.5c7.9,4.4,17.5,10.6,12,21c-1.1,3.7-8.4,15.1,0.1,13.1
			c27.5-12.9,45.6-39.9,60.7-65.1c14.1-25.9-8.2-48.5-23.1-68.6c-14.7,17.4-34.4,19.6-55.5,21.2c-1.2,4-9.9,3.7-9.4,10.7
			c0.4,5.5,1.7,11,2.7,17.5c21.3-14,29.9-1.3,49.5,7.5c2.7,1.4,1.8,2.9,0.1,4.7c-11,14.2-13.9,24.3-33.2,29.8
			c0.4,0.4,0.9,0.8,1.3,1.1C279.6,442.7,277.9,445,276.1,447.5z M360.2,49.3C326.1,2.6,267.2-5,213.4,7.7
			c40,3.1,66.5,24.2,83.3,59.1c9,17,1.3,31.9-8.6,46.3c4.1,0,7.1,0,11.3,0c-9.2-6.2,8-14,12.5-16.1
			C333.9,91.1,328.8,58.7,360.2,49.3z M71.1,268.1c18.8,8.3,27.9-14.6,37-26.5c13.8-22.5,18.4-47.9,21.9-73.6
			c0.2-16.1-5.4-29.9,7.2-43.5c9-16.5,21.1-29.1,41.1-25.5c10.6,0.7,39.6,17.7,46.2,7.1c2.6-5.4,1.7-14.7-1.9-17.3
			c-9.6-6.8-19.4-13.4-29.2-19.9c-43.3-4.7-75.9,41.4-75.3,81.6C121.4,197.2,111.7,240.4,71.1,268.1z M57.5,223
			c67.6-86.6,19.6-157,106.8-164.8c-24.4-4.6-50.1,1.9-68.8,17.7C67.6,120,58.2,171.1,57.5,223z M286.3,109c0.5,0,0.9-0.1,1.4-0.1
			c6.3-36-4.2-77.9-43.4-89.3c-30.4-17-62.9-5.9-92.1,8.2C218.5,27.4,256.8,48.4,286.3,109z M162.9,469.4c-0.3,0.3-0.6,0.6-0.9,1
			c16,30.4,46.5,65.5,22.2,99.9c-31.7,43.7,0.9,63.5-44.3,99.7c18.2,10.3,37.3,11.4,57.7,7.6c-21.4-23.2-21.5-59.7-6.6-86.3
			c4.9-9,9.9-18.2,13.1-27.8C217.6,525.4,186.2,494.9,162.9,469.4z M282.2,111.6C251.9,62,191.8,31.2,133.5,39
			c-12.7,7.5-21.6,17.4-32,28.3c25.7-11.4,51.1-18.2,78.9-6.7c16.6,6.2,37.6,5,45.5,24.1c5.4,12.5,18.5,19.7,27.7,29.4
			C262.4,118.3,271.8,112.3,282.2,111.6z M296.2,116.1c25.7,9.7,40.5,34.8,65.6,45.5c20.9,8.7,42.7,5.3,57.7-10.5
			c6.8-7.2,13.2-13.8,23.9-15.1c-3.1-1.8-6.3-3.6-9.5-3.7c-29.6-1.2-59.5,0.3-89-1.7C314.9,129.2,304.9,109.5,296.2,116.1z
			 M269.6,487.9c-34.7-3.1-64.5-17.1-90.1-41.1c15.8,37.5,49,73.7,92.1,73C270.9,508.9,270.3,498.6,269.6,487.9z M379.7,326.5
			c18.3-9.8,24.4-72.5,28.9-93.5c0.1-38.8-10.5-17.5-26.3-2.3c-3.7,1.6-4,4-3.8,7.4C382.2,267.7,381.4,296.6,379.7,326.5z
			 M327.1,346.3c4.4-5,8.5-9.7,12.5-14.2c7.7-8.7,25.4-38,6.7-42.7C288.3,277.5,300.1,312.7,327.1,346.3z M160.5,306.9
			c-0.6,0-1.2,0.1-1.9,0.1c-7.2-7.6-8.4-13.2-4.8-23c-0.7-0.1-2.3-0.3-3.2-0.4c-1.1-2.5-2-4.4-3-6.8c2,0.2,3.4,0.4,5,0.6
			c-0.1-1.3-0.2-2.4-0.2-3.7c2.7,0.2,5.1,0.4,7.7,0.6c-0.7-5.3-1.3-10.1-1.9-14.8c-2.8-0.1-6.5-0.4-8.3,1.5
			c-7.5,14.4-15.3,28.7-22.1,43.5c-11.2,18.5-1.6,36.5,3.8,55.4C146,344.1,152,325.9,160.5,306.9z M437.4,130.6
			c0.1-0.3,0.2-0.6,0.3-0.9c-10.8-5.4-23.2-7.8-35.2-7.5c-13.7-3.2-27.4-6.7-40.9-10.5c-25.1-7.4-32-17-55.1,2.5
			C344.6,140.5,394.3,126,437.4,130.6z M448.2,143.2c1.7,12.5-2.3,24-5.4,35.6c-8.3,27.4-11.1,54.4-9.8,83.2
			C456.6,236.1,465.1,178.8,448.2,143.2z M95.2,657.8c-22.4-7.3-42.8-5.4-61.2,10c12,10.1,23.8,19.9,35.7,29.9
			C78.4,683.7,87.5,671.4,95.2,657.8z M308,123.4c12.8,16.5,24.2,32.2,34,50c22.1,24.6,53.5,9.9,69.7-13.3
			C369.1,184.8,338.8,148.8,308,123.4z M145.9,346.1c-0.5-0.1-1-0.3-1.5-0.4c-3.1,6.2-10.2,11.9-10.5,19
			c12.6,44.2,40.7,85.1,82.5,105.8c-25.6-17-39.9-43.7-53.6-70.1C153.6,383.4,144,366.6,145.9,346.1z M328.8,98.6
			c27,7.2,53.3,19.1,81.1,22.1c0.1-0.4,0.2-0.8,0.3-1.2c-22.8-8.5-16.3-26.6-26.7-30.2C366.1,86.3,341.6,84.5,328.8,98.6z
			 M291.7,412.9c7.4,12.7-24.5,3.6-31,14c-11.7,8.9-9.1-8.1-22.1-4.8c-0.2,0-0.4-0.5-0.8-0.9c0.5-1.1,1.1-2.4,1.8-4
			c-7.3,1-14.2,1.9-21.2,2.8c4.2,11.8,27.7,22.3,39.4,20.2c22.2-1.8,41.3-6.1,50.4-29.6C302.1,411.4,297.5,412.1,291.7,412.9z
			 M279.7,100.5C255.1,49.2,195.3,18.2,140,34.6C197.9,33.1,242.4,58.5,279.7,100.5z M73.1,696.5c22.5-4.5,43-10.8,60.8-25.5
			C84.3,653.5,103.7,654,73.1,696.5z M387.8,87c-0.2-15-2.7-39.6-21.6-36.1C360.8,66,349,75.6,340.4,87.7
			C356.6,84.7,371.4,84.6,387.8,87z M154.5,251.6c0.3,0.3,0.5,0.7,0.8,1c1.5-1.2,4.1-2.3,4.3-3.7c8.8-27.4-1.9-54.2-3.8-81.6
			c2.4-25.1,19.3-24.4,32.8-39.4c-35.8-3-52.4,26.3-33.2,60.4C165.1,208.9,162.1,230.9,154.5,251.6z M149.6,335.4
			c11.2-6.8,21.8-13.7,32.8-19.7c12.6-8.2,29.6-10.5,39.1-22.6c-11.5-2.8-21.4,5-32.3,7.6c-7.9,2.4-16,4-23.9,6
			C159.2,308.4,153.9,328.9,149.6,335.4z M338.2,439.2c-0.4-0.2-0.9-0.4-1.3-0.7c-14.6,27,0.3,59.5,19.9,80.5
			c-1.3-8.6-0.1-14.8-3.2-21.5C341.8,479.8,336.3,460.5,338.2,439.2z M32.5,669.3c-26.1,24,15.1,33.4,34.1,28.7
			C54.7,687.9,43.6,678.6,32.5,669.3z M146.4,114.7c17-9,44.4-14.8,47,10.5c13.2-0.3,28-6.9,28.9-14
			C195.6,115.4,167.4,83.2,146.4,114.7z M146.4,439.6c0.1-17.3-1.7-45.6-17.7-54.9C122.4,404.5,137.5,423.3,146.4,439.6z
			 M311.8,407.9c0.1-0.3,0.2-0.7,0.2-1c-17.6-9.8-28.2-20.5-48-7.6c0.5,2.8,1.1,5.4,1.7,8.5c2.4-2.1,4.4-3.7,7.3-6.2
			c0,3.2,0,4.9,0,6.3C286.2,407.9,299,407.9,311.8,407.9z M65.2,268.4c-8.9-3.3-13.6-9.8-14.2-20.5c-7.5,16.3-14.4,31.3-21.3,46.3
			C39.6,282.9,54.4,278.9,65.2,268.4z M324.9,90.5c17,0.9,21.8-17.6,32.3-27.3c2.3-2.9,5.8-6.2,3.8-10.1c-4.7-1.9-14.3,6.4-17.4,9.6
			C336.7,71.4,331.1,81.1,324.9,90.5z M157.7,457.4c-0.5-32-12.1-61.8-25.9-90.3c-9,13.2,8.4,21.2,11.1,33.7
			c4.7,11.8,6.8,24.4,6.1,37C148.5,445.9,153,450.9,157.7,457.4z M391.3,91.1c0.9,13.3,11.6,25.6,23.5,27.6c10,0.4,3.8-12.3-0.1-16
			C408.4,96.3,399.9,93.8,391.3,91.1z M284.2,487.5c15.3,1.9,32.4-1.4,42.9-13.7c2.9-5.7-0.2-9.9-6.1-9c-7.1,2.3-11.9,9.3-17.9,13.3
			C297,481.7,290.5,484.5,284.2,487.5z M160.7,258.8c0.4,3.5-0.4,17.9,5.9,11.2c0.6-0.8,2.3-0.9,3.5-0.9c5.7,0.7,12.2-0.9,17.6-1.8
			c8,2.7,15.9,5.3,24.2,8.1c0.5-2.9,1-5.5,1.6-8.6C195.5,264.1,178.5,261.5,160.7,258.8z M216.1,415.3c0.2,0.5,0.4,1,0.6,1.6
			c13.1-2.7,26.2-5.4,39.3-8.1c-1.5-1.9-3-3.6-4.4-5.3c0.4-0.3,0.8-0.7,1.1-1c2.5,2.2,5.1,4.4,7.8,6.7c6.8-11.4-4.1-13.2-12.7-10.8
			C237.1,403.7,226.6,409.6,216.1,415.3z M242.2,418.6c2.6,1.2,5.8,1.5,7,3.2c8.6,13,10.4-5.1,41-4.4c0.1-2.8,0.3-4.8,0.4-7.3
			c-10.8,0.9-21.1,5.3-32.2,3.7C252.4,413.3,246.3,414.6,242.2,418.6z M120,317.9c4.1-9.8,7.8-19.2,12.1-28.3
			c3.3-9.5,12.6-17.5,12.2-27.8c-0.7-0.1-1.4-0.2-2.2-0.3C131.6,278.8,116.7,294.4,120,317.9z M71.4,700.5
			c-7.5,6.4-10.2,20.8,0,24.5c7.8,3.1,15.7-6.6,10.3-13.3C78.8,707.8,75.1,704.5,71.4,700.5z M126.4,375.7
			c8.5-15.1-1.7-28.4-5.6-43.1c-0.5,0-0.9,0-1.4,0C120.7,347.2,113.4,364.9,126.4,375.7z M283.1,48.7c7.8,17.8,9.6,36,7.9,54.9
			C303,89.7,299.4,64.3,283.1,48.7z M401.3,207.5c-10.2-5.9-28,12.5-21.6,23C387.1,222.7,394.2,215.1,401.3,207.5z M310.5,263.6
			c-9.7,5.3-2.2,18.6,7.7,15.9c7-0.4,13-13.6,5.5-15.8c-1.3,4.1-1.7,7.7-3.6,10.3C314.2,277.4,306.5,270.7,310.5,263.6z
			 M143.3,453.7c0.8-0.2,1.7-0.4,2.5-0.6c-1.1-13.3-10.8-23.9-14.9-36.4C133.1,429.8,135,442.9,143.3,453.7z M200,273.6
			c-1.8,6.3-3.4,11.6-4.8,16.5c4.2-0.6,20.6-8.5,13.5-13.2C205.6,275.5,202.4,274.4,200,273.6z M118,327.9c-7.5,7.8-9.6,30.6-2,34.3
			C116.6,350.8,117.3,339.3,118,327.9z M176.6,275.3c-7.2,10.3,10.8,21.4,17.7,10.8c3.4-4.9,3-9.6-1.1-12.1
			C195,287.9,178.6,291,176.6,275.3z M161.2,303.7c0-6.4,0-12.5,0-18.6C150.5,286.1,150.6,300.9,161.2,303.7z M232,95.8
			c0.2,11.6,10.4,21.2,16.9,20C243.8,109.7,237.9,102.8,232,95.8z M453.6,146.2c-0.3,0.3-0.7,0.6-1,1c2.3,10.3,4.7,20.5,7,30.8
			c0.4-0.1,0.8-0.1,1.2-0.2C458.4,167.3,460.6,154.9,453.6,146.2z M176,290.2c-1.5-5-2.7-9-4-13.3
			C156.6,282.8,166.6,285.4,176,290.2z M316.8,463.2c4.2,0,8.3,0,12.2,0c0-4.1,0-8.7,0-14C324.7,454.2,320.7,458.7,316.8,463.2z
			 M280.3,113.9c-6.7,1.4-13.3,2.8-20.1,4.2C268.7,123.8,276.6,122.1,280.3,113.9z M319.3,98.1c-0.2-0.5-0.4-1-0.6-1.5
			c-7.8,2.4-14.6,6.2-20.8,12.6C301.9,113.3,314.2,100.3,319.3,98.1z M237.1,363.4c1.5,6.4,5.7,9,13.9,8.8
			C248.6,366.5,243.4,363.1,237.1,363.4z M312.9,132.6c-0.5,0.3-0.9,0.6-1.3,1c6.4,9.1,12.9,18.2,19.3,27.4c0.5-0.4,1.1-0.8,1.6-1.1
			C325.9,150.7,319.4,141.7,312.9,132.6z M223,85.1c-3.7-8.5-10-13.8-19.8-16.5C210.3,74.6,216.6,79.8,223,85.1z M124,392.3
			c0.5,0,0.9,0,1.4-0.1c-1-6.5,3.7-14.4-5.6-19.5C121.2,379.6,122.6,386,124,392.3z M357.9,504c-0.5,9.8,1.5,15.1,6.6,17.2
			C364.5,514.8,361,510.3,357.9,504z M319.5,264.1c-3,1.9-5.1,3.3-8.2,5.3C317.8,275.4,322.1,272.5,319.5,264.1z M129.9,153.1
			c0.7,0.1,1.4,0.3,2,0.4c1.4-7.6,2.9-15.3,4.3-23c-0.6-0.1-1.3-0.2-1.9-0.4C132.8,137.9,131.3,145.5,129.9,153.1z M178.8,277.2
			c1.4,10,15.2,7.4,11.6-1.8C187.6,280.2,184.1,281,178.8,277.2z M272.5,365.7c0.3,0.4,0.6,0.8,1,1.2c4.1-1.7,9.7-1.4,9.2-7.3
			C277.9,358.4,275.7,363.1,272.5,365.7z M427.3,146.6c5.6-2.2,11.3-4.5,16.9-6.7C437.2,138.8,431.7,141.7,427.3,146.6z M319.7,98.6
			c0.5,0.8,1.1,1.6,1.6,2.4c3.1-2.4,6.1-4.7,9.2-7.1c-0.4-0.5-0.8-1.1-1.2-1.6C326.1,94.4,322.9,96.5,319.7,98.6z M346.8,258.3
			c0.2-0.8,0.4-1.5,0.6-2.3c-3.6-1-7.3-1.9-10.9-2.9c-0.2,0.7-0.4,1.4-0.5,2C339.6,256.2,343.2,257.3,346.8,258.3z M268.7,443.7
			c0.1,0.6,0.3,1.2,0.5,1.8c3-0.9,5.9-1.8,8.8-2.6c-0.2-0.8-0.5-1.6-0.8-2.4C274.4,441.6,271.6,442.7,268.7,443.7z"/>
	</g>
</g>
</svg>
