<?xml version="1.0" encoding="utf-8"?>
<!-- Generator: Adobe Illustrator 24.1.0, SVG Export Plug-In . SVG Version: 6.00 Build 0)  -->
<svg version="1.1" id="kite" xmlns="http://www.w3.org/2000/svg" xmlns:xlink="http://www.w3.org/1999/xlink" x="0px" y="0px"
	 viewBox="0 0 290 525" style="enable-background:new 0 0 290 525;" xml:space="preserve">
<style type="text/css">
	.st0{fill:none;stroke:#FBFF12;stroke-width:7;stroke-linecap:round;stroke-linejoin:round;stroke-miterlimit:10;}
	.st1{fill:none;stroke:#2F1EFF;stroke-width:4;stroke-linecap:round;stroke-linejoin:round;stroke-miterlimit:10;}
	.st2{fill:none;stroke:#000000;stroke-width:8;stroke-linecap:round;stroke-linejoin:round;stroke-miterlimit:10;}
	.st3{fill:none;stroke:#000000;stroke-width:4;stroke-linecap:round;stroke-linejoin:round;stroke-miterlimit:10;}
	.st4{fill:none;stroke:#000000;stroke-width:6;stroke-linecap:round;stroke-linejoin:round;stroke-miterlimit:10;}
</style>
<path id="YELLOW_BOTTOM_BOTTOM" class="st0" d="M172.5,400.5c-171.1-55.8-27,136.3,4.5,6"/>
<path id="YELLOW_BOTTOM_TOP" class="st0" d="M245,188.9c12,14.7,31.5,36.4,23.8,57.2c-4.4,11.8-17.3,17.7-28.5,23.6
	c-13.2,7-26,16.2-32.6,29.5c-11.3,22.9-2.8,54.9,12.6,74c2.7,3.3,5.8,6.5,9.6,8.4s8.5,2.6,12.4,0.9c4.4-1.9,7.3-6.6,8-11.3
	c0.8-4.8-0.2-9.7-1.8-14.2c-4.7-14-15-26.1-28-33.1c-19.3-10.4-49.8-6.6-48,21.3c0.5,7.6,3.4,14.8,6.5,21.7c3.1,7,6.3,14,7.4,21.5
	c0.3,1.8,0.4,3.7,1.3,5.4c0.9,1.6,2.5,2.8,4,3.8c9.6,6.8,18.7,12.8,26.2,21.9c6.7,8.2,12.1,17.4,16.5,27c8.8,19.3,13.9,40.1,18,60.9
	"/>
<path id="YELLOW_INSIDE_THE_KITE" class="st0" d="M170.5,105.5c-19-33-52.6-53.9-79-76l29.5,23C91.1,73.7,61.2,95.3,39,125"/>
<path id="YELLOW_DOT" class="st0" d="M138.4,40.5c-1.8,1.2-3.7,2.3-5.5,3.5"/>
<path id="BLUE_BOTTOM" class="st1" d="M236.5,263.2c-7.7,3.2-15.6,5.9-24.2,5"/>
<path id="BLUE_BOTTOMX2" class="st1" d="M244.6,341.9c5,8.7,6.3,17.7,6.8,27.6"/>
<path id="BLUE_LEFT" class="st1" d="M17.9,47.6c0.5,11.7-0.8,23.4-2,35"/>
<path id="BLUE_RIGHT" class="st1" d="M184.5,60.5c2.3,5,4.7,10,7,15"/>
<path id="KITE_INSIDE_2" class="st2" d="M26.3,11c15.5,9.7,66.7,38.9,81.8,49.2c15.7,10.7,31.3,21.5,45.8,33.9
	c11.5,9.9,22.6,20.3,33.4,31.1c16.4,16.5,33.9,32.1,46.6,52.2"/>
<path id="KITE_INSIDE" class="st2" d="M165.1,31.1c-10.5,8.5-27.5,24-37.9,32.5c-2.5,2-4.7,4.2-6.6,6.8l0,0
	c-6.4,5-12.7,9.3-17.8,13.7C90.4,94.9,77.4,105,64.7,115.5c-11.7,9.7-28.8,21.4-40.3,31.3"/>
<polygon id="RIBBON_LEFT" class="st3" points="233.8,180.3 218,202.4 233.8,216.7 "/>
<polygon id="RIBBON_RIGHT" class="st3" points="238.1,177.3 266.9,161.8 266.9,183.4 "/>
<path id="outline" class="st4" d="M247,511.5c-2.5-33.9-67.5-169.5-132-131.6c-10.7,6.3-17.2,18-16,30.3c4.1,42.7,95.2,37.2,76-29.8
	L164.8,352c-10.7-27.1-14.5-56,25.2-42.5h1c20.7,9.4,43.1,30.8,50.8,52.5c3.8,8.4,1.8,28.2-11.3,23.5c-25.8-12.8-47.1-55.8-36-83.5
	c4.4-10.2,11.3-17.2,23-18c25.9-0.1,66.6-15.6,57-48c-11.1-29.7-37.6-49.6-51.1-78c-3.8-8.3-7.6-16.6-12-24.5l-50.2-99.2L31,13.9
	c-0.4,34.2-5,98.5-4,132.6l0.5-4c50.1,6.5,156.7,26,206.3,34.9"/>
</svg>
