<?xml version="1.0" encoding="utf-8"?>
<!-- Generator: Adobe Illustrator 24.1.0, SVG Export Plug-In . SVG Version: 6.00 Build 0)  -->
<svg version="1.1" id="kite" xmlns="http://www.w3.org/2000/svg" xmlns:xlink="http://www.w3.org/1999/xlink" x="0px" y="0px"
	 viewBox="0 0 2267.7 1275.6" style="enable-background:new 0 0 2267.7 1275.6;" xml:space="preserve">
<style type="text/css">
	.st0{fill:none;stroke:#000000;stroke-width:8;stroke-linecap:round;stroke-linejoin:round;stroke-miterlimit:10;}
	.st1{fill:none;stroke:#000000;stroke-width:4;stroke-linecap:round;stroke-linejoin:round;stroke-miterlimit:10;}
	.st2{fill:none;stroke:#000000;stroke-width:6;stroke-linecap:round;stroke-linejoin:round;stroke-miterlimit:10;}
	.st3{fill:none;stroke:#000000;stroke-width:4;stroke-miterlimit:10;}
	.st4{font-family:'MyriadPro-Regular';}
	.st5{font-size:55px;}
</style>
<path id="KITE_INSIDE_2" class="st0" d="M252.4,247.7c39.2,4.9,166.2,15.4,205.2,21.8c40.5,6.6,81,13.6,120.7,24.6
	c31.6,8.9,62.8,19.2,93.8,30.5c47.2,17.4,95.7,32,138.9,59.8"/>
<path id="KITE_INSIDE" class="st0" d="M542.7,160.5c-12.8,26.2-32,72.1-44.6,98.3c-3.1,6.2-5.4,12.5-6.7,19.3l0,0
	c-8,15.6-16.4,29.8-22.4,43.1c-14.4,32.5-30.7,64.1-46,96.3c-14.1,29.7-36.9,68.2-50.4,98.1"/>
<polygon id="RIBBON_LEFT" class="st1" points="813.5,390.2 802.7,447.9 846.7,461.5 "/>
<polygon id="RIBBON_RIGHT" class="st1" points="819.2,380.4 861.5,323.7 881.2,366 "/>
<path id="TAIL" class="st2" d="M1141.6,1027.1c-35.8-64.1-286.9-270.6-378.8-137.4c-15.2,22.1-17.3,51-3.7,74
	c47,79.9,220.5-14,121.7-127.7L835,789.6c-45.7-43.3-79.5-96.5,10.6-106.3l2-0.9c49.1-0.5,112.6,21,147.5,56.5
	c15.1,13,29.3,53.6-0.7,56.4c-62.2-1.5-143.2-66.4-146.7-130.8c-0.7-24,6.4-44,28.6-56.3c50.7-23.8,116.3-91.3,67.9-146.1
	c-48.9-48.1-118.9-62.9-171.3-106.2"/>
<path id="outline" class="st2" d="M810.9,384.5c-15-12.8-68.1-54.1-84-65.6L538,170.3l-273.8,78.8c30.4,67.4,80.1,197.6,113.2,263.5
	l-2.7-8.3C478.9,471.4,705.5,412.3,810.9,384.5"/>
<rect x="1395.9" y="889.8" class="st3" width="464.9" height="137.3"/>
<text transform="matrix(1 0 0 1 1417.8057 974.7126)" class="st4 st5">Return to TImeline</text>
</svg>
