<?xml version="1.0" encoding="utf-8"?>
<!-- Generator: Adobe Illustrator 24.1.0, SVG Export Plug-In . SVG Version: 6.00 Build 0)  -->
<svg version="1.1" id="kite" xmlns="http://www.w3.org/2000/svg" xmlns:xlink="http://www.w3.org/1999/xlink" x="0px" y="0px"
	 viewBox="0 0 2267.7 1275.6" style="enable-background:new 0 0 2267.7 1275.6;" xml:space="preserve">
<style type="text/css">
	.st0{font-family:'ArialMT';}
	.st1{font-size:12px;}
</style>
<text transform="matrix(1 0 0 1 1279.469 240.2286)" class="st0 st1">It was a dark and stormy afternoon in 1752. </text>
<text transform="matrix(1 0 0 1 1279.469 285.2286)" class="st0 st1">While the weather above the city of Philadelphia told its citizens to go home,  </text>
<text transform="matrix(1 0 0 1 1279.469 330.2286)" class="st0 st1">safe from the approaching thunderstorm, a man called Benjamin Franklin </text>
<text transform="matrix(1 0 0 1 1279.469 375.2286)" class="st0 st1">saw the opportunity he had been waiting for.  </text>
<text transform="matrix(1 0 0 1 1279.469 420.2286)" class="st0 st1">He took his kite, and with the help of his own son,</text>
<text transform="matrix(1 0 0 1 1279.469 465.2286)" class="st0 st1">wanted to prove that there is a connection</text>
<text transform="matrix(1 0 0 1 1279.469 510.2286)" class="st0 st1">between lighting and electricity. </text>
<text transform="matrix(1 0 0 1 1279.469 600.2286)" class="st0 st1">The kite consisted of a wire that was meant to behave as  </text>
<text transform="matrix(1 0 0 1 1279.469 645.2286)" class="st0 st1">a lightning rod and two strings - one made out of hemp,</text>
<text transform="matrix(1 0 0 1 1279.469 690.2286)" class="st0 st1">one from silk. Hemp was meant to conduct the electrical charge,  </text>
<text transform="matrix(1 0 0 1 1279.469 735.2286)" class="st0 st1">whereas the silk string didn’t and therefore it was safe for </text>
<text transform="matrix(1 0 0 1 1279.469 780.2286)" class="st0 st1">Benjamin to hold. To the hemp string, he attached a metal key.  </text>
<text transform="matrix(1 0 0 1 1279.469 825.2286)" class="st0 st1">And then he felt it - the threads of the hemp string started to  </text>
<text transform="matrix(1 0 0 1 1279.469 870.2286)" class="st0 st1">lift. As he moved his fingers closer to the key, he felt it –  </text>
<text transform="matrix(1 0 0 1 1279.469 915.2286)" class="st0 st1">a spark that proved his assumptions right.</text>
<text transform="matrix(1 0 0 1 1279.469 960.2286)" class="st0 st1">There was a connection between lighting and electricity.</text>
</svg>
