<!--?xml version="1.0" encoding="utf-8"?-->
<!-- Generator: Adobe Illustrator 24.1.0, SVG Export Plug-In . SVG Version: 6.00 Build 0)  -->
<svg version="1.1" id="timeline" class="timeline" xmlns="http://www.w3.org/2000/svg" xmlns:xlink="http://www.w3.org/1999/xlink" x="0px" y="0px" viewBox="0 0 2267.7 1275.6" style="enable-background:new 0 0 2267.7 1275.6;" xml:space="preserve" width="2267.699951171875" height="1275.5999755859375">
<style type="text/css">
	.st0{fill:none;stroke:#FBFF12;stroke-width:18;stroke-linecap:round;stroke-linejoin:round;stroke-miterlimit:10;}
	.st1{fill:none;stroke:#1212FF;stroke-width:7;stroke-linecap:round;stroke-linejoin:round;stroke-miterlimit:10;}
	.st2{fill:none;stroke:#000000;stroke-width:12;stroke-linecap:round;stroke-linejoin:round;stroke-miterlimit:10;}
	.st3{fill:#FFFFFF;stroke:#000000;stroke-width:8;stroke-miterlimit:10;}
</style>
<g id="animation-container">
<path id="yellow_line" class="yellow" d="M-49.5,815.9c0,0,64.5,28.6,182.7-58.6s96.7-162.7,77.4-160.8
		c-19.4,1.9-114.2,114.3,27.2,185.9c0,0,51.6,33.8,139.1-7.1C481.4,726.5,495.4,641.5,494.8,628c-0.5-13.5-11.5-69.8-128,52.8
		s-22.5,307.8,243,216.6S1278,657.5,1463.4,728s438,71,476-81.7s-37.5-309.8-203.7-317.1c-166.2-7.4-344.4,52.2-446,245.7
		s158.8,448.2,458.7,389.2c300-58.9,568.8-138.2,568.8-138.2"/>
	<path id="blue" class="blue" d="M2303.7,649.7c-75.2,1.4-149.6,31.5-204.6,82.8c-10.9,10.2-23.1,22.1-38,21.5
		c-10.1-0.4-19-6.5-27.1-12.6c-26.3-19.7-52.4-41.3-83.9-50.6s-70.7-2.5-88.3,25.3c-6.5,10.3-10.1,23.2-20.2,29.9
		c-22.1,14.7-47.7-11.4-72.1-22c-27.4-11.9-59.9-2.7-84.5,14.1s-43.5,40.6-64.5,61.8c-7.6,7.6-15.9,15.2-26.2,18.4
		c-30.4,9.5-57.5-21.9-70.9-50.8c-76.5-165.3-27.7-375.2-129.8-525.9c-18.5-27.3-47.6-53.9-80.1-48.3c-28.3,4.8-46.9,32.1-57.7,58.6
		c-40.8,99.3-19.6,212,2.6,317.1c4.8,22.7,3,55.4-20,58.1c-29.1,3.4-31.8-44.3-55.1-62c-24.3-18.4-59.7,4.5-72.9,32
		c-13.1,27.4-15.7,60.1-34.5,84c-4.1,5.2-9.3,10.1-15.8,11.3c-8.1,1.4-16-3.2-22.2-8.6c-22.8-20-32.1-50.9-46.7-77.5
		c-14.6-26.6-41.3-52.2-71.1-46.7c-28.9,5.3-44.8,36.7-51.9,65.2c-18.1,73-8,152.5-37.8,221.5c-3.1,7.2-7,14.6-13.8,18.6
		c-17.6,10.2-37.7-9.1-46.9-27.2c-33.2-65.1-39.3-148.9-97.8-192.7c-11.1-8.3-24.3-14.8-38.2-14.2c-52.8,2.3-61.6,94.7-114.1,100.5
		c-47.6,5.3-78.3-67.8-125.5-59.3c-22.8,4.1-37.6,26.5-45.7,48.3s-13.1,45.6-28.4,63.1c-15.3,17.5-46.3,24.2-60.7,6
		c-6.6-8.3-8-19.4-8.6-30c-1.8-32,0.8-67.8-20.6-91.7c-27.5-30.8-80.1-21.9-111.8,4.5s-50.2,65-75.2,97.8
		c-44.7,58.5-154.2,7.6-227,18.7"/>
	<path id="yellow" class="yellow" d="M-98.7,953.3c219.6,6.1,442.2,79.7,655.1,25.5c152.4-38.8,286.4-144.9,359.1-284.4
		c35.6-68.3,56.5-152.1,23.3-221.6c-35-73.4-124.8-110.4-205.3-98.8S583,438,533.3,502.4c-57.4,74.4-91.8,167.8-88.2,261.6
		s46.9,187.1,121.5,244.2c46.4,35.5,102.5,56.3,158.9,71.4c64.9,17.4,132.5,28.3,199.3,20.6c77.3-8.9,149.8-42.2,216.6-82
		c149.7-89.2,276.4-211.3,406.6-327.1c31.4-27.9,63.8-56,102.6-72.2c38.7-16.3,85.5-19.1,121.3,2.8c21.2,13,36.8,33.3,52.3,52.8
		c42.5,53.8,89,106.4,148.7,140.1c59.7,33.7,135.2,45.8,197.1,16.3c132.7-63.3,129-262.1,236.8-362"/></g>
<path id="outline" class="st2 svg-elem-1" d="M2300.5,716.9c-43.4,6.4-87.4,14.4-125.8,36.6c-36.8,21.3-61.7,62.6-101.5,77.6
	c-78.6,29.6-65.6-74.4-124.7-80.6c-45.4-4.8-54.1,58.5-85.8,75.7c-45.7,24.8-61.9-41.1-98.1-49.9c-13.7-3.4-28.6,1.3-39.5,10.3
	c-36.9,30.3-29.3,88.7-55.7,125.5c-17.8,24.7-49.9,39.2-79.8,33.5c-19-3.6-35.8-14.6-50-27.7c-55.2-50.6-82-133-99.8-203.9
	c-21.5-85.3-28.9-173.7-30.8-261.4c-0.9-42.1,6.4-139-58.9-135.8c-66.6,3.5-53.5,99.2-49.8,143.2c8.2,101.1,7.5,202.7-0.8,303.8
	c-1.3,15.5-2.8,31.6-9.5,45.6c-24.7,51.8-70.9,18.8-79-22.8c-6.2-31.9-2.1-64.7-6.9-96.7c-2.3-14.9-6.8-30.2-18-40.6
	c-2.7-2.5-6-4.6-9.6-5.7c-15.7-4.7-27.4,9.9-34,23.5c-23.1,46.7-24.3,101.7-52.4,146.3c-5.2,8.2-11.5,16.5-20.9,19.2
	c-12.2,3.5-24.9-4.3-33-14c-17.6-21.5-20-51.2-23.3-78.8c-3.1-25.9-12.4-109.3-51-107.5c-12.1,0.5-20.6,12-26,22.9
	c-23.5,47.3-22.4,101.4-25.9,152.8c-3.2,46.5-10.2,93.3-28.6,136c-4.4,10.1-9.4,20-16.9,28c-7.5,8-17.8,13.9-28.7,14
	c-8.6,0.2-17-3.2-24.3-7.8c-42.6-26.6-59.8-87.6-72.5-132.7c-13.7-49.3-25.5-100.7-56.2-141.8c-19.8-26.6-49.8-31.8-69.8-3.5
	c-15.5,21.9-20.5,48.7-31.9,72.6c-11.5,23.9-30.7,58.1-60.5,60.3c-25.2,1.8-43.7-19-55.4-38.6c-14.5-24.5-34.6-56.8-68.4-49.3
	C336.9,758.5,340,871.6,324,916.7c-5.9,16.5-16.4,33.7-33.6,37.4c-20.1,4.2-39.1-13.2-46.5-32.4c-21.2-55.6,5.2-199.3-90.1-192
	c-36.2,2.7-58.3,54.4-81.4,77.5c-27.4,27.5-60.5,40.5-99.3,36.1"></path>
<g id="innerSVG">
	<circle id="first-circle" class="circle path fill st3 svg-elem-2" cx="158.5" cy="730.1" r="22.8"></circle>
	<circle id="second-circle" class="circle path fill st3 svg-elem-4" cx="518.6" cy="832" r="22.8"></circle>
	<circle id="third-circle" class="circle path fill st3 svg-elem-6" cx="964.1" cy="632" r="22.8"></circle>
	<circle id="fourth-circle" class="circle path fill st3 svg-elem-8" cx="1350.8" cy="315.7" r="22.8"></circle>
	<circle id="fifth-circle" class="circle path fill st3 svg-elem-10" cx="1948.7" cy="751" r="22.8"></circle>
</g>

</svg>