<!--?xml version="1.0" encoding="utf-8"?-->
<!-- Generator: Adobe Illustrator 24.1.0, SVG Export Plug-In . SVG Version: 6.00 Build 0)  -->
<svg version="1.1" id="Layer_1" class="timeline" xmlns="http://www.w3.org/2000/svg" xmlns:xlink="http://www.w3.org/1999/xlink" x="0px" y="0px" viewBox="0 0 2267.7 1275.6" style="enable-background:new 0 0 2267.7 1275.6;" xml:space="preserve" width="2267.699951171875" height="1275.5999755859375">
<style type="text/css">
	.st0{fill:none;stroke:#FBFF12;stroke-width:18;stroke-linecap:round;stroke-linejoin:round;stroke-miterlimit:10;}
	.st1{fill:none;stroke:#1212FF;stroke-width:7;stroke-linecap:round;stroke-linejoin:round;stroke-miterlimit:10;}
	.st2{fill:none;stroke:#000000;stroke-width:12;stroke-linecap:round;stroke-linejoin:round;stroke-miterlimit:10;}
	.st3{fill:#FFFFFF;stroke:#000000;stroke-width:8;stroke-miterlimit:10;}
</style>
<!-- <path id="yellow_line" class="st0" d="M-49.5,815.9c0,0,64.5,28.6,182.7-58.6s96.7-162.7,77.4-160.8
	c-19.4,1.9-114.2,114.3,27.2,185.9c0,0,51.6,33.8,139.1-7.1c104.5-48.8,118.5-133.8,117.9-147.3c-0.5-13.5-11.5-69.8-128,52.8
	s-22.5,307.8,243,216.6s668.2-239.9,853.6-169.4s438,71,476-81.7s-37.5-309.8-203.7-317.1c-166.2-7.4-344.4,52.2-446,245.7
	c-101.6,193.5,158.8,448.2,458.7,389.2c300-58.9,568.8-138.2,568.8-138.2"/>
<path id="blue_part_04" class="st1" d="M1368.8,272.8c-36-4.5-69.5,16-90,44.5"/>
<path id="blue_part_03" class="st1" d="M2116.3,859.5c-19.5,10.9-41.6,19.8-65.5,16.8"/>
<path id="blue_part_02" class="st1" d="M808.3,928.1c8.9,8.5,28.3,17,41.8,5.9"/>
<path id="blue_part_01" class="st1" d="M252,982.5c9.5,7.2,23.1,10.3,34.6,6.4"/>
<path id="blue_part_00" class="st1" d="M65.1,746.5c-3.3,4.2-6.7,8.1-10.9,11.4"/> -->
<path id="outline" class="path fill st2 svg-elem-1" d="M2300.5,716.9c-43.4,6.4-87.4,14.4-125.8,36.6c-36.8,21.3-61.7,62.6-101.5,77.6
	c-78.6,29.6-65.6-74.4-124.7-80.6c-45.4-4.8-54.1,58.5-85.8,75.7c-45.7,24.8-61.9-41.1-98.1-49.9c-13.7-3.4-28.6,1.3-39.5,10.3
	c-36.9,30.3-29.3,88.7-55.7,125.5c-17.8,24.7-49.9,39.2-79.8,33.5c-19-3.6-35.8-14.6-50-27.7c-55.2-50.6-82-133-99.8-203.9
	c-21.5-85.3-28.9-173.7-30.8-261.4c-0.9-42.1,6.4-139-58.9-135.8c-66.6,3.5-53.5,99.2-49.8,143.2c8.2,101.1,7.5,202.7-0.8,303.8
	c-1.3,15.5-2.8,31.6-9.5,45.6c-24.7,51.8-70.9,18.8-79-22.8c-6.2-31.9-2.1-64.7-6.9-96.7c-2.3-14.9-6.8-30.2-18-40.6
	c-2.7-2.5-6-4.6-9.6-5.7c-15.7-4.7-27.4,9.9-34,23.5c-23.1,46.7-24.3,101.7-52.4,146.3c-5.2,8.2-11.5,16.5-20.9,19.2
	c-12.2,3.5-24.9-4.3-33-14c-17.6-21.5-20-51.2-23.3-78.8c-3.1-25.9-12.4-109.3-51-107.5c-12.1,0.5-20.6,12-26,22.9
	c-23.5,47.3-22.4,101.4-25.9,152.8c-3.2,46.5-10.2,93.3-28.6,136c-4.4,10.1-9.4,20-16.9,28c-7.5,8-17.8,13.9-28.7,14
	c-8.6,0.2-17-3.2-24.3-7.8c-42.6-26.6-59.8-87.6-72.5-132.7c-13.7-49.3-25.5-100.7-56.2-141.8c-19.8-26.6-49.8-31.8-69.8-3.5
	c-15.5,21.9-20.5,48.7-31.9,72.6c-11.5,23.9-30.7,58.1-60.5,60.3c-25.2,1.8-43.7-19-55.4-38.6c-14.5-24.5-34.6-56.8-68.4-49.3
	C336.9,758.5,340,871.6,324,916.7c-5.9,16.5-16.4,33.7-33.6,37.4c-20.1,4.2-39.1-13.2-46.5-32.4c-21.2-55.6,5.2-199.3-90.1-192
	c-36.2,2.7-58.3,54.4-81.4,77.5c-27.4,27.5-60.5,40.5-99.3,36.1"></path>
<circle id="first-circle" class="circle path fill st3 svg-elem-2" cx="158.5" cy="730.1" r="22.8"></circle>
<circle id="second-circle" class="circle path fill st3 svg-elem-3" cx="277.6" cy="954.7" r="22.8"></circle>
<circle id="third-circle" class="circle path fill st3 svg-elem-4" cx="518.6" cy="832" r="22.8"></circle>
<circle id="fourth-circle" class="circle path fill st3 svg-elem-5" cx="836.4" cy="980.6" r="22.8"></circle>
<circle id="fifth-circle" class="circle path fill st3 svg-elem-6" cx="964.1" cy="632" r="22.8"></circle>
<circle id="sixth-circle" class="circle path fill st3 svg-elem-7" cx="1251.7" cy="829.1" r="22.8"></circle>
<circle id="seventh-circle" class="circle path fill st3 svg-elem-8" cx="1350.8" cy="315.7" r="22.8"></circle>
<circle id="eigth-circle" class="circle path fill st3 svg-elem-9" cx="1747.3" cy="776.8" r="22.8"></circle>
<circle id="ninth-circle" class="circle path fill st3 svg-elem-10" cx="1948.7" cy="751" r="22.8"></circle>
</svg>